<?xml version="1.0" encoding="UTF-8"?>
<!-- Generator: visioncortex VTracer 0.6.12 -->
<svg version="1.1" xmlns="http://www.w3.org/2000/svg" width="1024" height="1024">
<path d="M0 0 C1.65 -0.33 3.3 -0.66 5 -1 C7.9 -0.55 7.9 -0.55 11.09 0.26 C12.26 0.55 13.43 0.84 14.63 1.15 C15.87 1.47 17.1 1.79 18.38 2.12 C19.65 2.45 20.92 2.78 22.24 3.12 C38.69 7.42 54.31 13.33 70.11 19.57 C71.17 19.99 72.23 20.41 73.33 20.84 C76 22 76 22 79 24 C78.67 25.32 78.34 26.64 78 28 C79.32 27.01 80.64 26.02 82 25 C99.86 30.93 116.6 42.54 132.12 53 C132.61 53.32 132.61 53.32 135.06 54.96 C141.88 59.64 141.88 59.64 143 63 C140.11 64.85 140.11 64.85 135.75 67.06 C122.56 74.12 110.33 82.56 98 91 C96.52 92.01 95.04 93.02 93.51 94.07 C87.44 98.31 81.82 102.75 76.41 107.8 C73.94 110.06 71.37 112.12 68.75 114.19 C53.16 126.81 38.34 142.77 28 160 C29.32 160.66 30.64 161.32 32 162 C35.02 168.05 32.87 175.34 30 181 C26.17 186.14 22.79 190.25 16.81 192.75 C5.84 199.23 3 220.25 3 232 C5.93 234.31 5.93 234.31 9.88 236.44 C16.22 239.99 22.11 243.74 28 248 C28.66 246.68 29.32 245.36 30 244 C31.33 242.19 32.68 240.4 34.06 238.62 C42.52 227.46 50.6 215.37 56.57 202.66 C57.04 201.78 57.51 200.9 58 200 C58.66 200 59.32 200 60 200 C61.78 203.73 63.39 207.43 64.94 211.25 C65.42 212.43 65.9 213.62 66.4 214.83 C71.05 226.57 74.74 238.57 78.29 250.69 C81.31 260.96 84.79 270.68 89.5 280.31 C93.26 288.28 96.06 296.3 97.79 304.95 C99.16 309.54 101.23 312.14 104.12 315.94 C111.65 328.07 109.81 341.77 109.05 355.56 C109 358.87 109.41 361.76 110 365 C109.99 369.83 109.87 374.64 109.74 379.47 C110 384 110.8 386.14 113 390 C113.9 394.48 114.12 398.2 114.14 402.75 C114.45 433.14 118.83 460.49 127.08 489.68 C128.49 494.76 129.74 499.88 131 505 C118.36 501.26 107.18 493.15 97 485 C104.22 500 112.64 513.9 122.53 527.29 C127.77 535.16 127.82 541.43 124.31 550.25 C119.21 558.53 110.93 562.45 101.81 565.31 C99 567 99 567 98.75 570.69 C100 575 100 575 102.56 579 C106.61 585.64 105.74 589.3 102.69 596.31 C100 601 100 601 97 604 C98 609 98 609 99 611 C99.57 620.63 98.94 624.93 91.31 630.88 C84.91 636.91 87.17 643.79 88.51 651.69 C90.49 665.02 87.75 674.94 78.56 684.62 C64.58 694.97 48.39 692.75 32.19 689.75 C28.14 689.02 24.09 688.48 20 688 C14.66 719.31 24.51 745.35 45.57 768.27 C56.87 780.97 65.35 793.56 70 810 C70.37 811.3 70.74 812.59 71.12 813.93 C72.37 821.15 72.33 828.25 72.31 835.56 C72.33 837.01 72.34 838.46 72.36 839.95 C72.37 859.36 68.88 877.01 56 892 C55.05 893.18 54.1 894.35 53.12 895.56 C51 898 51 898 50 898 C50.04 896.35 50.08 894.7 50.12 893 C50.07 868.04 41.65 850.35 19.68 837.51 C14.11 834.52 8.42 831.86 2.69 829.19 C-15.16 820.84 -31.17 810.12 -45 796 C-45.33 796 -45.66 796 -46 796 C-46.36 804.34 -45.82 811.63 -44.06 819.81 C-36.96 853.22 -44.6 886.7 -69.75 910.81 C-85.02 923.86 -104.19 930.52 -124 932 C-121.3 929.3 -119.12 927.79 -115.88 925.88 C-98.9 915.18 -89.81 898.01 -90 878 C-93.11 855.52 -112.12 843.09 -131 834 C-139.84 830.54 -148.71 827.97 -158 826 C-157.36 826.55 -156.72 827.09 -156.06 827.65 C-139.93 841.71 -131.7 857.3 -134.69 879 C-136.16 884.61 -138.18 888.94 -141 894 C-141.33 894 -141.66 894 -142 894 C-142.59 891.72 -143.15 889.42 -143.69 887.12 C-150.15 862.57 -169.35 854.62 -191.08 845.71 C-225.82 831.42 -252.97 809.62 -263 772 C-263 771.01 -263 770.02 -263 769 C-263.95 769.42 -264.89 769.85 -265.86 770.29 C-277.64 775.52 -289.6 780.14 -301.67 784.66 C-325.72 793.85 -346.41 804.69 -350.88 832.44 C-351.29 851.04 -344.06 865.16 -330 877 C-330 877.66 -330 878.32 -330 879 C-364.27 871.25 -384.28 850.3 -394.78 817.32 C-397.68 807.03 -398.39 796.64 -399 786 C-401.83 802.2 -402.11 816.74 -400 833 C-423.45 816.93 -433.44 791.68 -432 764 C-431.38 760.19 -430.59 756.5 -429.66 752.76 C-429 750 -429 750 -429 747 C-430.05 747.33 -431.1 747.66 -432.19 748 C-447.69 751.22 -460.19 747.8 -471 736 C-474.84 730.8 -476.76 726.33 -478 720 C-477.28 720.48 -476.55 720.96 -475.8 721.46 C-474.84 722.09 -473.87 722.72 -472.88 723.38 C-472.4 723.69 -472.4 723.69 -469.99 725.27 C-460.24 730.9 -452.09 729.52 -442 725 C-432.43 717.86 -428.35 705.36 -423.94 694.62 C-411.88 666.05 -383.94 648.72 -355 641 C-373.21 636.45 -392.61 646.32 -405 659 C-407.62 662.56 -407.62 662.56 -409 665 C-409.66 664.67 -410.32 664.34 -411 664 C-410.51 642.06 -398.25 622.62 -380 611 C-363.86 602.72 -345.88 600.66 -328.05 599.21 C-316.54 598.18 -306.99 594.99 -297 589 C-297.95 588.83 -298.91 588.66 -299.89 588.48 C-301.14 588.24 -302.4 588 -303.69 587.75 C-304.93 587.52 -306.17 587.29 -307.45 587.05 C-311.21 585.94 -313.34 584.88 -316 582 C-314.83 577.32 -312.82 574.43 -310.12 570.44 C-309.24 569.12 -308.36 567.79 -307.45 566.43 C-302.86 560 -302.86 560 -300 560 C-299.34 558.68 -298.68 557.36 -298 556 C-296.75 554.08 -295.5 552.16 -294.25 550.25 C-285.06 535.32 -277.57 514.68 -282 497 C-284.88 494.12 -284.88 494.12 -288 492 C-290.68 487.08 -291.06 483.27 -290.81 477.81 C-290.6 469.42 -293.01 462.13 -295.5 454.17 C-296.84 449.54 -297.68 445.13 -298.38 440.38 C-299.53 434.31 -299.53 434.31 -303.5 431.75 C-304.99 431.5 -306.47 431.25 -308 431 C-310 430.45 -312 429.89 -314 429.31 C-315.65 428.88 -317.3 428.45 -319 428 C-323.97 441.93 -326.57 455.69 -327.94 470.38 C-332.29 512.55 -342.88 554.02 -375 584 C-375.66 582.68 -376.32 581.36 -377 580 C-377.97 581.44 -378.94 582.89 -379.94 584.38 C-391.45 600.64 -406.44 610.85 -424 620 C-425.19 620.63 -426.38 621.26 -427.61 621.9 C-447.2 631.67 -470.2 636.7 -492 638 C-488.79 634.79 -486.32 632.8 -482.56 630.44 C-436.6 600.21 -424.22 550.86 -427.19 498.6 C-427.75 490.99 -428.5 483.48 -430 476 C-431.01 477.49 -432.02 478.97 -433.06 480.5 C-448.95 503 -448.95 503 -458 503 C-457.06 499.25 -456.02 496.04 -454.19 492.62 C-445 473.2 -443.8 451.76 -443.81 430.62 C-443.81 429.33 -443.81 428.04 -443.81 426.7 C-443.87 416.45 -444.59 406.37 -445.54 396.17 C-446.74 382.61 -447.48 365.48 -437 355 C-438.65 355.66 -440.3 356.32 -442 357 C-443.32 356.67 -444.64 356.34 -446 356 C-446.51 348.36 -445.62 340.62 -445 333 C-444.91 331.91 -444.83 330.81 -444.74 329.68 C-442.91 307.77 -439.27 286.06 -434.06 264.7 C-433.91 264.09 -433.91 264.09 -433.16 260.98 C-431.36 256.35 -428.71 255.74 -424 255 C-422.68 254.67 -421.36 254.34 -420 254 C-421.51 253.65 -423.01 253.3 -424.56 252.94 C-426.03 252.3 -427.49 251.66 -429 251 C-428.57 209.09 -381 132.75 -348 108 C-344.08 108.82 -340.71 110.45 -337 112 C-337.52 111.3 -337.52 111.3 -340.12 107.75 C-343 103 -343 103 -341 99 C-334.44 91.89 -327.39 85.24 -320 79 C-319.11 78.22 -318.21 77.44 -317.29 76.63 C-281.98 46.02 -241.16 23.75 -197 9 C-196.01 8.66 -195.02 8.32 -194 7.97 C-178.91 2.82 -178.91 2.82 -173 4 C-171.2 7.16 -171.2 7.16 -169.69 11.06 C-169.18 12.35 -168.66 13.64 -168.14 14.97 C-167.95 15.47 -167.95 15.47 -167 18 C-167.13 16.76 -167.27 15.52 -167.41 14.24 C-167.51 8.74 -167.23 5.05 -165 0 C-158.55 -3.24 -151.89 -3.91 -144.8 -4.61 C-140.76 -5.02 -136.76 -5.56 -132.73 -6.12 C-21.11 -21.11 -21.11 -21.11 0 0 Z M30 466 C30 467.32 30 468.64 30 470 C31.32 470 32.64 470 34 470 C34 468.68 34 467.36 34 466 C32.68 466 31.36 466 30 466 Z M16.5 467.88 C15.72 468.05 15.72 468.05 11.78 468.93 C8 470 8 470 7 472 C8.87 472.96 10.75 473.92 12.62 474.88 C13.67 475.41 14.71 475.94 15.79 476.49 C20.36 478.64 23.92 480 29 480 C28.34 477.69 27.68 475.38 27 473 C25.35 473.33 23.7 473.66 22 474 C18 471 18 471 18 470 C21.44 469.38 21.44 469.38 25 469 C25.33 469.66 25.66 470.32 26 471 C26 469.35 26 467.7 26 466 C22.95 466 19.43 467.21 16.5 467.88 Z M-376 577 C-375 579 -375 579 -375 579 Z " fill="#1A0E09" transform="translate(646,51)"/>
<path d="M0 0 C0.76 0.01 0.76 0.01 4.63 0.07 C5.48 0.07 5.48 0.07 9.79 0.1 C11.62 0.16 13.44 0.21 15.33 0.27 C16.26 0.28 16.26 0.28 20.95 0.36 C40.5 0.8 59.44 2.33 78.45 6.96 C78.07 11.29 77.17 14.71 75.64 18.81 C73.14 25.57 71.41 32.46 69.7 39.46 C69.39 40.72 69.07 41.98 68.75 43.28 C66.45 52.55 66.45 52.55 66.45 55.96 C68.5 52.35 70.54 48.75 72.58 45.14 C72.86 44.64 72.86 44.64 74.31 42.1 C84.18 24.65 84.18 24.65 87.22 18.22 C87.71 17.23 88.2 16.23 88.7 15.21 C89.18 14.18 89.66 13.15 90.16 12.1 C96.84 5.86 114.6 13.54 122.89 15.86 C133.96 19.26 144.71 23.67 155.45 27.96 C153.64 32.5 152.1 34.88 149.08 38.58 C139.31 51.06 131.11 64.58 124.45 78.96 C125.11 78.3 125.11 78.3 128.45 74.96 C129.11 74.96 129.77 74.96 130.45 74.96 C131.11 73.64 131.77 72.32 132.45 70.96 C164.76 35.95 164.76 35.95 179.45 38.96 C185.34 41.55 190.87 44.78 196.45 47.96 C197.76 48.68 199.07 49.41 200.41 50.16 C209.33 55.32 209.33 55.32 210.45 60.96 C207.68 63.17 207.68 63.17 203.64 65.46 C184.49 76.77 166.91 90.49 150.81 105.79 C148.25 108.2 145.62 110.54 142.95 112.83 C139.08 116.29 135.81 120 132.45 123.96 C131.83 124.64 131.83 124.64 128.7 128.08 C124.2 133.12 120.09 138.46 115.97 143.82 C113.45 146.96 113.45 146.96 109.45 150.96 C108.79 150.3 108.13 149.64 107.45 148.96 C116.8 127.85 132.93 108.31 147.9 90.95 C150.35 88.07 152.69 85.13 155.02 82.14 C158.45 77.96 158.45 77.96 160.45 77.96 C161.11 76.64 161.77 75.32 162.45 73.96 C163.11 73.96 163.77 73.96 164.45 73.96 C164.45 73.3 164.45 72.64 164.45 71.96 C163.07 73.07 161.69 74.18 160.27 75.33 C156.9 78.04 154.61 79.29 150.45 80.96 C150.45 81.62 150.45 82.28 150.45 82.96 C149.79 82.96 149.13 82.96 148.45 82.96 C147.79 84.28 147.13 85.6 146.45 86.96 C144.1 89.58 141.7 92.16 139.27 94.71 C128.78 105.7 119.16 117.05 110.39 129.46 C109.36 130.91 108.34 132.36 107.28 133.85 C105.6 136.3 103.96 138.77 102.41 141.31 C98.35 147.9 98.35 147.9 93.27 148.21 C89.45 146.96 89.45 146.96 85.45 144.96 C85.79 129.89 92.57 114.89 98.91 101.48 C100.45 97.96 100.45 97.96 100.45 94.96 C90.6 106.22 82.82 123.24 78.89 137.71 C78.65 138.41 78.65 138.41 77.45 141.96 C72.45 142.96 72.45 142.96 68.45 140.96 C70.86 123.66 80.36 105.2 88.45 89.96 C90.13 86.58 91.79 83.21 93.45 79.83 C97.51 71.7 101.86 63.8 106.45 55.96 C106.78 55.3 107.11 54.64 107.45 53.96 C106.79 53.96 106.13 53.96 105.45 53.96 C104.79 55.28 104.13 56.6 103.45 57.96 C101.51 60.39 99.57 62.82 97.61 65.24 C90.6 74.08 84.63 83.59 79.31 93.54 C77.88 96.17 76.4 98.78 74.91 101.37 C68.82 112.05 64.18 122.32 60.31 133.97 C58.45 137.96 58.45 137.96 53.45 138.96 C50.27 138.77 50.27 138.77 47.45 137.96 C45.05 133.14 45.56 131.68 46.61 126.5 C46.91 125 47.21 123.51 47.51 121.97 C47.84 120.37 48.18 118.78 48.52 117.14 C48.84 115.53 49.17 113.92 49.5 112.25 C52.03 99.79 54.66 87.36 57.45 74.96 C56.79 74.96 56.13 74.96 55.45 74.96 C54.73 77.94 54.08 80.95 53.45 83.96 C52.58 86.82 51.68 89.67 50.77 92.52 C47.42 103.36 45.13 114.37 42.99 125.5 C42.72 126.84 42.45 128.18 42.16 129.56 C41.93 130.77 41.7 131.98 41.46 133.22 C40.45 135.96 40.45 135.96 36.45 136.96 C25.31 135.82 25.31 135.82 23.45 133.96 C23.3 113.7 27.56 92.96 30.45 72.96 C26.52 83.89 23.73 94.85 21.33 106.21 C20.35 110.78 19.36 115.35 18.33 119.92 C17.78 122.42 17.31 124.94 16.95 127.48 C16.43 130.51 16.43 130.51 14.45 134.96 C9.97 135.99 7.33 136.2 2.89 135.89 C2.36 135.89 2.36 135.89 -0.34 135.84 C-3.43 135.73 -3.43 135.73 -8.55 134.96 C-14.4 123.25 -13.08 107.03 -13.85 94.11 C-13.93 92.86 -14 91.6 -14.08 90.31 C-14.15 89.18 -14.21 88.06 -14.28 86.89 C-14.55 83.96 -14.55 83.96 -15.55 79.96 C-18.41 95.44 -18.67 110.61 -18.42 126.32 C-18.39 129.53 -18.46 132.74 -18.55 135.96 C-22.35 137.86 -25.42 137.52 -29.55 136.96 C-31.3 133.46 -31.3 133.46 -32.55 127.96 C-33.31 125.52 -34.09 123.1 -34.88 120.67 C-37.55 112.19 -39.6 103.65 -41.48 94.96 C-41.82 93.42 -42.16 91.88 -42.51 90.3 C-45.16 78.11 -47.53 65.87 -49.73 53.59 C-51.45 44.05 -51.45 44.05 -52.55 42.96 C-51.69 73.76 -48.31 104.88 -41.55 134.96 C-41.55 136.61 -41.55 138.26 -41.55 139.96 C-45.8 141.08 -45.8 141.08 -50.55 140.96 C-52.12 137.61 -53.36 134.44 -54.55 130.96 C-55.31 128.96 -56.09 126.97 -56.87 124.98 C-58.07 121.9 -59.26 118.82 -60.45 115.73 C-63.44 108.07 -63.44 108.07 -64.55 106.96 C-63.78 115 -61.69 122.59 -59.63 130.38 C-58.42 135.06 -57.55 139.09 -57.55 143.96 C-60.36 144.96 -60.36 144.96 -63.55 144.96 C-64.99 141.69 -64.99 141.69 -66.55 136.96 C-66.87 136.04 -66.87 136.04 -68.49 131.41 C-68.84 130.41 -69.19 129.41 -69.55 128.38 C-86.35 80.76 -86.35 80.76 -96.55 73.96 C-95.85 75.7 -95.14 77.44 -94.42 79.24 C-72.55 134 -72.55 134 -72.55 147.96 C-77.42 150.27 -77.42 150.27 -80.69 151.49 C-86.83 153.83 -92.76 156.65 -98.74 159.38 C-102.55 160.96 -102.55 160.96 -105.55 160.96 C-107.38 158.28 -107.38 158.28 -109.36 154.64 C-110.07 153.36 -110.77 152.08 -111.5 150.76 C-112.72 148.49 -113.94 146.23 -115.16 143.96 C-125.49 124.79 -138.48 105.02 -153.92 89.58 C-156.02 87.48 -157.99 85.27 -159.92 83.02 C-163.55 78.96 -163.55 78.96 -167.48 75.58 C-170.55 72.96 -170.55 72.96 -170.55 70.96 C-171.87 70.63 -173.19 70.3 -174.55 69.96 C-173.8 70.95 -173.05 71.94 -172.27 72.96 C-154.5 96.56 -154.5 96.56 -147.49 107.85 C-146.02 110.2 -144.51 112.53 -142.98 114.84 C-136.57 124.66 -130.88 134.68 -125.48 145.08 C-124.84 146.31 -124.2 147.55 -123.53 148.82 C-116.82 161.93 -116.82 161.93 -115.55 167.96 C-120.6 172.23 -125.87 176.63 -132.55 174.96 C-134.84 172.33 -134.84 172.33 -137.3 168.96 C-140.44 164.72 -143.61 160.66 -147.17 156.77 C-150.55 152.96 -150.55 152.96 -150.55 150.96 C-151.54 150.63 -152.53 150.3 -153.55 149.96 C-155.1 147.92 -156.65 145.88 -158.19 143.84 C-164.85 135.69 -172.13 127.82 -181.55 122.96 C-181.22 123.95 -180.89 124.94 -180.55 125.96 C-179.89 125.96 -179.23 125.96 -178.55 125.96 C-177.2 127.95 -175.87 129.95 -174.55 131.96 C-170.86 136.66 -167.06 141.26 -163.08 145.71 C-156.69 152.93 -151.22 160.59 -145.86 168.58 C-145.14 169.65 -144.42 170.72 -143.68 171.82 C-138.55 179.58 -138.55 179.58 -138.55 182.96 C-144.7 188.17 -144.7 188.17 -149.55 186.96 C-151.68 184.46 -151.68 184.46 -154.11 181.08 C-159.06 174.59 -164.41 168.78 -170.17 163.02 C-170.56 162.62 -170.56 162.62 -172.56 160.62 C-186.38 146.96 -186.38 146.96 -190.55 146.96 C-188.16 150.91 -185.43 154.22 -182.3 157.58 C-178.25 162.01 -174.91 166.62 -171.66 171.67 C-168.46 176.65 -165.09 181.52 -161.75 186.41 C-157.5 193.25 -157.5 193.25 -156.55 196.96 C-158.59 200.05 -158.59 200.05 -161.73 202.89 C-162.76 203.85 -163.78 204.81 -164.84 205.8 C-167.55 207.96 -167.55 207.96 -169.55 207.96 C-169.55 208.62 -169.55 209.28 -169.55 209.96 C-171.73 212.21 -171.73 212.21 -174.55 213.96 C-180.12 211.73 -183.07 208.93 -187.55 204.96 C-190.81 202.55 -194.09 200.2 -197.42 197.89 C-198.26 197.31 -199.09 196.72 -199.95 196.12 C-206.89 191.28 -213.97 186.75 -221.55 182.96 C-221.55 183.62 -221.55 184.28 -221.55 184.96 C-220.89 184.96 -220.23 184.96 -219.55 184.96 C-219.55 185.62 -219.55 186.28 -219.55 186.96 C-218.89 187.29 -218.89 187.29 -215.55 188.96 C-213.22 190.85 -210.93 192.8 -208.67 194.77 C-201.64 200.88 -201.64 200.88 -198.1 203.72 C-195.55 205.96 -195.55 205.96 -195.55 207.96 C-194.23 208.62 -192.91 209.28 -191.55 209.96 C-189.73 211.34 -187.96 212.78 -186.23 214.27 C-185.33 215.03 -184.43 215.79 -183.5 216.57 C-181.55 218.96 -181.55 218.96 -182.55 223.96 C-183.87 225.28 -185.19 226.6 -186.55 227.96 C-191.23 226.08 -195.2 223.88 -199.55 221.33 C-211.67 214.53 -227.39 205.96 -241.55 205.96 C-240.77 206.35 -240.77 206.35 -236.87 208.33 C-234.8 209.4 -232.74 210.46 -230.67 211.52 C-229.66 212.03 -228.64 212.55 -227.6 213.07 C-220.82 216.57 -214.75 220.52 -208.55 224.96 C-206.63 226.04 -204.7 227.1 -202.73 228.08 C-198.46 230.45 -195.67 232.29 -192.55 235.96 C-193.98 238.64 -193.98 238.64 -196.55 240.96 C-202.62 239.3 -208.25 236.83 -213.98 234.27 C-236.21 224.84 -259.44 218.59 -283.55 216.96 C-282.7 217.22 -281.85 217.49 -280.97 217.76 C-260.95 224.06 -241.76 230.78 -222.92 240.08 C-221.9 240.58 -220.88 241.09 -219.83 241.61 C-214.41 244.33 -209.24 247.07 -204.55 250.96 C-204.91 256.21 -209.9 264.31 -213.55 267.96 C-218.61 268.02 -223.65 267.98 -228.71 267.92 C-233.19 267.88 -237.19 267.87 -241.55 268.96 C-239.9 269.27 -238.25 269.58 -236.55 269.91 C-234.4 270.34 -232.26 270.77 -230.11 271.21 C-229.56 271.31 -229.56 271.31 -226.81 271.83 C-224.02 272.4 -221.28 273.17 -218.55 273.96 C-217.21 279.28 -218.88 281.3 -221.55 285.96 C-224.79 287.58 -228.29 287.46 -231.85 287.8 C-253.57 289.94 -276.07 294.64 -294.55 306.96 C-287.32 305.59 -280.27 303.87 -273.17 301.96 C-257.23 297.78 -242.99 296.7 -226.55 296.96 C-228.57 308.44 -228.57 308.44 -235.22 310.98 C-236.23 311.24 -237.25 311.5 -238.3 311.77 C-253.12 316.03 -266.16 322.71 -278.11 332.39 C-282.55 335.96 -282.55 335.96 -284.55 335.96 C-284.22 336.62 -283.89 337.28 -283.55 337.96 C-282.57 337.46 -281.58 336.96 -280.57 336.45 C-243.83 317.96 -243.83 317.96 -232.55 317.96 C-234.11 328.57 -238.82 330.24 -247.98 334.58 C-259.54 340.29 -269.94 347.58 -280.18 355.36 C-282.55 356.96 -282.55 356.96 -287.55 358.96 C-288.21 360.61 -288.87 362.26 -289.55 363.96 C-291.52 366.06 -293.57 368.1 -295.67 370.08 C-301.39 375.68 -306.14 381.29 -310.55 387.96 C-311.27 389.02 -312 390.09 -312.75 391.19 C-322.3 405.56 -329.04 421.03 -335.55 436.96 C-339.91 434.05 -339.04 431.8 -339.24 426.68 C-339.32 424.97 -339.39 423.25 -339.47 421.49 C-339.54 419.68 -339.6 417.88 -339.67 416.02 C-339.82 412.51 -339.97 409 -340.12 405.49 C-340.18 403.75 -340.25 402.01 -340.32 400.21 C-340.61 393.49 -341.02 386.77 -341.46 380.05 C-341.9 360.15 -328.81 345.1 -313.55 333.96 C-312.55 333.23 -311.56 332.5 -310.53 331.75 C-307.88 329.81 -305.22 327.88 -302.55 325.96 C-314.02 325.96 -323.61 331.86 -333.43 337.38 C-336.55 338.96 -336.55 338.96 -339.55 338.96 C-339.97 317.57 -336.78 295.91 -332.42 275.02 C-332.19 273.76 -331.95 272.5 -331.71 271.2 C-330.28 264.89 -329.76 262.66 -323.96 259.31 C-322.18 258.86 -320.39 258.42 -318.55 257.96 C-316.81 257.48 -315.08 257 -313.29 256.51 C-311.54 256.1 -309.79 255.69 -307.98 255.27 C-306.23 254.85 -304.48 254.44 -302.67 254.01 C-297.95 253.04 -293.34 252.4 -288.55 251.96 C-290.58 247.89 -297.95 248.17 -302.23 247.39 C-303.42 247.17 -304.6 246.95 -305.83 246.72 C-315.02 245.02 -315.02 245.02 -318.87 244.57 C-321.55 243.96 -321.55 243.96 -322.55 240.96 C-320.92 235.5 -318.65 230.25 -316.55 224.96 C-315.85 223.14 -315.14 221.33 -314.42 219.46 C-310.78 210.17 -306.98 201.35 -301.46 192.98 C-298.65 188.53 -296.44 183.83 -294.14 179.12 C-292.18 175.23 -289.88 171.62 -287.55 167.96 C-286.97 166.74 -286.39 165.52 -285.8 164.27 C-282.58 158.1 -278.6 152.6 -274.55 146.96 C-273.43 145.4 -272.31 143.85 -271.16 142.24 C-267.68 137.44 -264.13 132.69 -260.55 127.96 C-259.69 126.8 -258.84 125.64 -257.96 124.45 C-252.83 117.99 -252.83 117.99 -247.42 117.83 C-236.07 122.78 -225.71 128.91 -215.55 135.96 C-213.55 137.29 -211.55 138.63 -209.55 139.96 C-213.69 130.1 -220.91 121.96 -228.04 114.12 C-229.15 112.89 -230.27 111.66 -231.42 110.39 C-232.47 109.28 -233.52 108.16 -234.6 107.01 C-235.24 106.01 -235.88 105 -236.55 103.96 C-229.08 91.5 -214.64 79.35 -201.55 72.96 C-200.8 72.2 -200.05 71.44 -199.27 70.66 C-190.19 61.66 -178.06 55.01 -166.57 49.58 C-163.55 47.96 -163.55 47.96 -160.17 45.52 C-156.44 42.88 -152.71 40.89 -148.61 38.89 C-147.28 38.24 -145.95 37.59 -144.58 36.92 C-143.25 36.27 -141.92 35.62 -140.55 34.96 C-139.88 34.61 -139.88 34.61 -136.51 32.89 C-132.75 31.06 -129.03 29.52 -125.11 28.08 C-123.73 27.57 -122.35 27.06 -120.92 26.54 C-113.81 23.97 -106.69 21.44 -99.55 18.96 C-97.79 18.34 -96.04 17.72 -94.23 17.08 C-90.55 15.96 -90.55 15.96 -86.55 15.96 C-84.71 19.39 -83.19 22.68 -81.73 26.27 C-81.52 26.79 -81.52 26.79 -80.41 29.41 C-77.07 37.43 -74.01 45.54 -71.12 53.73 C-69.97 56.82 -68.7 59.86 -67.35 62.87 C-65.55 66.96 -65.55 66.96 -65.55 68.96 C-64.89 68.96 -64.23 68.96 -63.55 68.96 C-63.55 68.34 -63.55 68.34 -63.56 65.25 C-63.58 60.63 -63.59 56.02 -63.6 51.41 C-63.61 48.46 -63.62 45.51 -63.63 42.56 C-63.64 37.02 -63.61 31.49 -63.55 25.96 C-63.54 25.19 -63.54 25.19 -63.5 21.31 C-63.45 19.97 -63.4 18.63 -63.35 17.24 C-63.32 16.09 -63.29 14.93 -63.25 13.74 C-62.11 9.22 -58.61 8.33 -54.5 6.87 C-49.14 5.63 -43.75 4.97 -38.3 4.33 C-37.23 4.2 -36.16 4.06 -35.06 3.92 C-15.86 1.64 -15.86 1.64 -12.55 4.96 C-12.13 8.07 -11.81 11.2 -11.55 14.33 C-10.77 23.52 -10.77 23.52 -8.55 27.96 C-8.45 27.32 -8.45 27.32 -7.96 24.08 C-7.83 23.24 -7.83 23.24 -7.17 18.96 C-6.92 17.29 -6.66 15.61 -6.4 13.89 C-6.26 13.08 -6.26 13.08 -5.55 8.96 C-5.37 7.55 -5.19 6.15 -5 4.7 C-3.55 0.96 -3.55 0.96 0 0 Z " fill="#B10B0B" transform="translate(553.54638671875,53.044189453125)"/>
<path d="M0 0 C8.2 11.34 16.25 25.49 12.04 39.55 C9.03 63.58 29.23 90.26 42.32 109.08 C46.8 115.63 49.27 119.92 46.66 127.62 C41.61 135.19 33.46 138.49 25.44 142.26 C21.19 144.55 22.01 145.96 21.72 151.12 C21.74 157.04 23.23 161.29 26.04 166.55 C20.29 167.68 20.29 167.68 18.04 166.55 C10.33 165.55 5.43 168.75 -0.84 172.74 C-19.28 184.21 -19.28 184.21 -25.9 185.05 C-28.96 185.55 -28.96 185.55 -31.96 190.55 C-30.31 190.22 -28.66 189.89 -26.96 189.55 C-25.46 189.62 -23.95 189.68 -22.4 189.74 C-15 189.87 -8 187.94 -0.83 186.23 C4.42 185.5 7.97 186.11 13.04 187.55 C14.17 187.84 15.3 188.13 16.47 188.43 C19.04 189.55 19.04 189.55 21.04 193.55 C21.23 197.27 21.22 200.01 20.04 203.55 C11.79 207.68 0.85 203.93 -6.96 200.55 C-6.3 199.89 -5.64 199.23 -4.96 198.55 C-4.96 197.56 -4.96 196.57 -4.96 195.55 C-6.94 195.55 -8.92 195.55 -10.96 195.55 C-10.96 196.21 -10.96 196.87 -10.96 197.55 C-11.95 197.55 -12.94 197.55 -13.96 197.55 C-12.24 198.83 -10.51 200.1 -8.78 201.37 C-7.81 202.07 -6.85 202.78 -5.86 203.51 C-0.62 207.21 3.82 209.19 10.04 210.55 C9.71 212.2 9.38 213.85 9.04 215.55 C8.91 221.13 8.94 226.08 10.04 231.55 C10.98 243.34 10.42 252.41 0.41 260.12 C-4.85 263.05 -7.86 263.71 -13.78 263.74 C-14.98 263.76 -16.18 263.77 -17.42 263.79 C-29.19 263.19 -39.96 260.66 -51.15 257.05 C-52.45 256.65 -53.74 256.25 -55.08 255.83 C-67.58 251.88 -67.58 251.88 -68.92 247.25 C-69.96 241.69 -71 236.13 -71.96 230.55 C-72.2 229.23 -72.43 227.9 -72.67 226.53 C-74.51 215.89 -76.25 205.22 -77.96 194.55 C-78.16 193.35 -78.36 192.14 -78.56 190.9 C-82.95 163.61 -85.84 135.76 -86.42 108.13 C-87.46 101.34 -92.73 99.5 -98.4 96.87 C-117.12 87.73 -131.22 75.46 -141.96 57.55 C-140.79 52.87 -139.81 52.29 -136.09 49.43 C-117.23 34.52 -104.31 17.37 -92.87 -3.65 C-73.72 -38.75 -22.53 -28.04 0 0 Z M-39.96 47.55 C-39.96 48.87 -39.96 50.19 -39.96 51.55 C-38.64 51.55 -37.32 51.55 -35.96 51.55 C-35.96 50.23 -35.96 48.91 -35.96 47.55 C-37.28 47.55 -38.6 47.55 -39.96 47.55 Z M-53.46 49.43 C-54.24 49.6 -54.24 49.6 -58.18 50.48 C-61.96 51.55 -61.96 51.55 -62.96 53.55 C-61.09 54.52 -59.22 55.48 -57.34 56.43 C-56.3 56.96 -55.25 57.5 -54.18 58.05 C-49.6 60.19 -46.05 61.55 -40.96 61.55 C-41.62 59.24 -42.28 56.93 -42.96 54.55 C-44.61 54.88 -46.26 55.21 -47.96 55.55 C-51.96 52.55 -51.96 52.55 -51.96 51.55 C-48.53 50.93 -48.53 50.93 -44.96 50.55 C-44.63 51.21 -44.3 51.87 -43.96 52.55 C-43.96 50.9 -43.96 49.25 -43.96 47.55 C-47.02 47.55 -50.53 48.76 -53.46 49.43 Z " fill="#E9B082" transform="translate(715.96484375,469.4453125)"/>
<path d="M0 0 C1.58 0 3.16 0 4.79 0 C16.34 0.05 16.34 0.05 18.62 1.19 C21.66 1.65 24.71 2.08 27.75 2.5 C36.91 3.85 45.73 5.63 54.62 8.19 C56.01 8.58 57.39 8.98 58.81 9.39 C75.14 14.46 102.76 23.39 112.62 38.19 C111.18 40.67 111.18 40.67 108.94 43.38 C108.21 44.28 107.49 45.18 106.74 46.11 C104.62 48.19 104.62 48.19 101.62 48.19 C100.96 49.51 100.31 50.83 99.62 52.19 C97.29 53.85 94.96 55.52 92.62 57.19 C91.96 58.51 91.31 59.83 90.62 61.19 C88 63.24 85.32 65.23 82.62 67.19 C81.02 68.54 79.41 69.89 77.81 71.25 C71.24 76.68 64.19 81.38 57.12 86.14 C53.57 88.55 50.05 91 46.56 93.5 C42.62 96.19 42.62 96.19 40.62 96.19 C40.62 96.85 40.62 97.51 40.62 98.19 C35.32 101.19 35.32 101.19 32.62 101.19 C32.62 101.85 32.62 102.51 32.62 103.19 C31.63 103.19 30.64 103.19 29.62 103.19 C29.62 103.85 29.62 104.51 29.62 105.19 C26.97 106.55 24.3 107.88 21.62 109.19 C18.1 111.3 14.61 113.44 11.12 115.62 C10.23 116.19 9.33 116.75 8.4 117.32 C5.81 118.94 3.22 120.56 0.62 122.19 C-13.76 131.19 -13.76 131.19 -18.38 131.19 C-18.38 131.85 -18.38 132.51 -18.38 133.19 C-24.73 137.19 -24.73 137.19 -27.38 137.19 C-27.38 137.85 -27.38 138.51 -27.38 139.19 C-29.48 140.35 -31.64 141.42 -33.81 142.44 C-38.25 144.58 -42.45 146.75 -46.5 149.56 C-50.38 152.19 -50.38 152.19 -54.38 153.19 C-56.38 148.19 -56.38 148.19 -55.38 143.19 C-57.02 143.52 -58.68 143.85 -60.38 144.19 C-63.38 142.19 -63.38 142.19 -63.38 140.19 C-64.03 140.19 -64.69 140.19 -65.38 140.19 C-65.7 139.2 -66.03 138.21 -66.38 137.19 C-68.02 136.53 -69.68 135.87 -71.38 135.19 C-71.38 134.53 -71.38 133.87 -71.38 133.19 C-72.37 133.52 -73.36 133.85 -74.38 134.19 C-76.72 133.21 -79.05 132.21 -81.38 131.19 C-92.93 128.42 -104.08 130.59 -114.38 136.19 C-115.37 136.52 -116.36 136.85 -117.38 137.19 C-117.38 137.85 -117.38 138.51 -117.38 139.19 C-121.38 142.19 -121.38 142.19 -123.38 142.19 C-124.03 143.51 -124.69 144.83 -125.38 146.19 C-126.37 147.84 -127.36 149.49 -128.38 151.19 C-129.69 150.86 -131.01 150.53 -132.38 150.19 C-133.03 150.85 -133.69 151.51 -134.38 152.19 C-134.74 149.96 -135.09 147.73 -135.44 145.5 C-135.54 144.88 -135.54 144.88 -136.04 141.74 C-136.38 138.19 -136.38 138.19 -135.38 133.19 C-135.38 129.87 -135.43 126.56 -135.5 123.25 C-135.56 113.37 -134.5 104.55 -131.38 95.19 C-130.72 95.19 -130.06 95.19 -129.38 95.19 C-129.29 94.2 -129.21 93.21 -129.12 92.19 C-127.03 81.04 -118.87 67.52 -109.38 61.19 C-109.38 60.2 -109.38 59.21 -109.38 58.19 C-107.4 56.49 -105.39 54.83 -103.38 53.19 C-102.36 51.99 -101.35 50.8 -100.31 49.56 C-97.38 46.19 -97.38 46.19 -92.38 43.19 C-92.05 42.86 -92.05 42.86 -90.38 41.19 C-89.18 40.88 -87.98 40.57 -86.75 40.25 C-85.64 39.9 -84.52 39.55 -83.38 39.19 C-83.38 38.2 -83.38 37.21 -83.38 36.19 C-85.36 36.19 -87.33 36.19 -89.38 36.19 C-90.03 37.51 -90.69 38.83 -91.38 40.19 C-95.41 42.49 -99.35 44.18 -103.75 45.69 C-107.38 47.19 -107.38 47.19 -109.38 51.19 C-109.87 51.35 -109.87 51.35 -112.38 52.19 C-113.22 52.87 -114.07 53.55 -114.94 54.25 C-117.38 56.19 -117.38 56.19 -119.38 56.19 C-119.54 56.52 -119.54 56.52 -120.38 58.19 C-121.03 58.19 -121.69 58.19 -122.38 58.19 C-123.03 59.51 -123.69 60.83 -124.38 62.19 C-125.99 63.9 -127.67 65.56 -129.38 67.19 C-131.61 69.37 -133.84 71.56 -136.06 73.75 C-137.2 74.87 -138.34 75.98 -139.51 77.13 C-142.38 80.19 -142.38 80.19 -144.38 84.19 C-145.37 84.52 -146.36 84.85 -147.38 85.19 C-147.54 85.68 -147.54 85.68 -148.38 88.19 C-149.69 89.51 -151.01 90.83 -152.38 92.19 C-152.54 92.85 -152.54 92.85 -153.38 96.19 C-156.95 102.19 -156.95 102.19 -159.38 102.19 C-159.47 103.03 -159.56 103.87 -159.66 104.73 C-160.49 108.73 -161.96 111.86 -163.81 115.5 C-164.43 116.73 -165.05 117.97 -165.68 119.24 C-167.38 122.19 -167.38 122.19 -169.38 123.19 C-170.05 126.52 -170.72 129.85 -171.38 133.19 C-171.84 134.24 -172.3 135.29 -172.78 136.37 C-185.19 166.11 -184.08 204.71 -175.38 235.19 C-175.38 242.02 -177.96 242.55 -183.38 246.19 C-185.07 240.86 -186.73 235.53 -188.38 230.19 C-188.69 229.17 -189.01 228.15 -189.34 227.1 C-191.89 218.46 -192.38 210.17 -192.38 201.19 C-192.7 200.86 -193.04 200.53 -193.38 200.19 C-194.19 180.15 -193.31 160.45 -187.23 141.2 C-186.01 136.9 -185.64 132.63 -185.38 128.19 C-184.71 128.19 -184.06 128.19 -183.38 128.19 C-182.69 125.87 -182.01 123.54 -181.36 121.21 C-179.65 115.96 -177.28 110.89 -174.38 106.19 C-173.71 106.19 -173.06 106.19 -172.38 106.19 C-172.05 104.54 -171.71 102.89 -171.38 101.19 C-170.71 99.87 -170.06 98.55 -169.38 97.19 C-168.71 97.19 -168.06 97.19 -167.38 97.19 C-167.27 96.29 -167.17 95.4 -167.07 94.48 C-165.96 89.22 -162.53 85.41 -159.38 81.19 C-158.72 80.26 -158.06 79.33 -157.38 78.38 C-145.41 61.56 -113.67 22.19 -90.38 22.19 C-90.21 21.69 -90.21 21.69 -89.38 19.19 C-86.84 18.19 -84.3 17.21 -81.72 16.35 C-79 15.4 -76.31 14.34 -73.64 13.25 C-49.84 3.93 -25.45 -0.2 0 0 Z " fill="#C3923B" transform="translate(551.375,271.8125)"/>
<path d="M0 0 C0.59 9.78 -3.46 13.78 -10.56 20.12 C-21.41 30.1 -29.6 40.3 -37 53 C-37.65 54.01 -38.29 55.02 -38.96 56.05 C-52.34 77.65 -60.41 106.67 -61 132 C-60.67 130.69 -60.34 129.38 -60 128.03 C-51.62 95.86 -38.87 67.45 -17 42 C-16.13 40.98 -15.25 39.96 -14.35 38.91 C-7.52 31.13 -7.52 31.13 -3 30 C-4.37 35.47 -7.41 38.72 -11 43 C-11.66 43 -12.32 43 -13 43 C-13.66 44.65 -14.32 46.3 -15 48 C-15.99 49.65 -16.98 51.3 -18 53 C-23.96 63.73 -29.31 74.28 -33 86 C-33.16 86.46 -33.16 86.46 -34 88.79 C-38.02 101.68 -44.36 123.93 -40 137 C-39.71 135.56 -39.42 134.12 -39.12 132.64 C-34.38 109.74 -27.93 87.31 -16 67 C-15.67 67 -15.34 67 -15 67 C-15.48 72.43 -16.35 77.62 -17.5 82.94 C-19.76 94.5 -19.74 106.26 -20 118 C-19.34 118 -18.68 118 -18 118 C-17.92 116.7 -17.83 115.4 -17.75 114.06 C-16.11 98.33 -11.06 83.11 -4 69 C-1 69 -1 69 1.06 72.5 C2.25 79.46 0.47 83.29 -2.29 89.64 C-7.2 102.15 -8.17 115.05 -9.5 128.31 C-11.91 151.98 -14.89 175.99 -27 197 C-27.33 197 -27.66 197 -28 197 C-27.93 196.18 -27.86 195.35 -27.79 194.51 C-27.05 185.26 -26.85 176.08 -26.88 166.81 C-26.87 165.44 -26.87 164.07 -26.86 162.66 C-26.88 141.12 -26.88 141.12 -29 139 C-29.08 139.57 -29.08 139.57 -29.49 142.43 C-30.23 147.64 -30.99 152.85 -31.75 158.06 C-31.88 158.95 -31.88 158.95 -32.52 163.46 C-36.11 187.97 -43.19 212.72 -58 233 C-59.07 234.51 -60.15 236.01 -61.25 237.56 C-64 241 -64 241 -66 241 C-66.66 242.32 -67.32 243.64 -68 245 C-69.65 245.99 -71.3 246.98 -73 248 C-71.74 242.97 -69.53 238.78 -67.25 234.12 C-56.36 211.53 -50.3 188.2 -51 163 C-51.16 164.01 -51.32 165.01 -51.48 166.05 C-55.88 192.58 -63.48 219.27 -79.79 241.04 C-82.28 244.38 -84.67 247.78 -87.06 251.19 C-93.9 260.68 -99.67 268.04 -111 272 C-111.99 271.67 -112.98 271.34 -114 271 C-112.24 266.59 -110.91 264.53 -108 261 C-90.65 235.11 -83.6 206.47 -83.62 175.62 C-83.62 174 -83.62 172.38 -83.62 170.72 C-83.74 156.28 -85 142.04 -86.66 127.71 C-90.31 95.69 -77.17 64 -56 40 C-55.27 39.15 -54.54 38.29 -53.78 37.41 C-42.12 24.06 -18.62 0 0 0 Z " fill="#B20C0C" transform="translate(315,394)"/>
<path d="M0 0 C25.55 -0.57 52.41 2.76 76.25 12.16 C77.9 12.49 79.55 12.82 81.25 13.16 C80.25 18.18 78.55 21.63 76.25 26.16 C74.61 30.35 74.25 32.53 74.25 37.16 C74.93 36.05 75.61 34.94 76.31 33.79 C77.28 32.26 78.25 30.74 79.25 29.16 C79.82 28.27 80.38 27.37 80.96 26.44 C85.67 19.28 85.67 19.28 91.25 18.16 C90.84 19.38 90.42 20.6 90 21.85 C89.42 23.6 88.85 25.36 88.25 27.16 C87.91 28.17 87.58 29.17 87.23 30.2 C85.36 35.95 83.99 41.4 83.25 47.41 C82.92 49.31 82.59 51.21 82.25 53.16 C76.61 54.57 73.53 52.39 68.25 50.16 C64.56 49.1 60.94 48.1 57.19 47.29 C54.25 45.16 54.25 45.16 54.62 39.98 C55.15 37.7 55.69 35.43 56.25 33.16 C56.81 30.25 57.35 27.33 57.88 24.41 C58.33 22 58.79 19.58 59.25 17.16 C58.26 17.16 57.27 17.16 56.25 17.16 C55.92 17.82 55.59 18.48 55.25 19.16 C55.25 18.17 55.25 17.18 55.25 16.16 C50.96 16.16 46.67 16.16 42.25 16.16 C44.25 16.64 46.25 17.11 48.31 17.6 C51.63 18.73 51.63 18.73 54.25 20.16 C54.69 24.04 54.69 24.04 53.25 29.16 C52.72 31.68 52.2 34.2 51.69 36.73 C51.21 38.87 50.74 41.02 50.25 43.16 C48.6 42.83 46.95 42.5 45.25 42.16 C44.26 42.16 43.27 42.16 42.25 42.16 C40.93 41.5 39.61 40.84 38.25 40.16 C38.25 39.83 38.25 39.5 38.25 39.16 C37.29 39.1 36.32 39.04 35.33 38.98 C34.06 38.9 32.8 38.81 31.5 38.73 C30.25 38.65 28.99 38.56 27.7 38.48 C24.25 38.16 24.25 38.16 20.25 37.16 C19.8 34.39 19.8 34.39 19.86 30.72 C19.87 29.42 19.89 28.11 19.9 26.77 C19.92 26.08 19.92 26.08 20 22.6 C20.02 21.22 20.04 19.84 20.05 18.42 C20.1 15 20.17 11.58 20.25 8.16 C19.26 8.16 18.27 8.16 17.25 8.16 C17.26 9.42 17.27 10.68 17.29 11.97 C17.29 13.64 17.3 15.32 17.31 17.04 C17.32 18.69 17.34 20.33 17.35 22.03 C17.25 27.13 16.83 32.1 16.25 37.16 C-15.58 39.34 -15.58 39.34 -20.57 32.04 C-21.18 26.95 -21.02 22.28 -20.75 17.16 C-21.74 15.51 -22.73 13.86 -23.75 12.16 C-23.59 13.34 -23.42 14.52 -23.25 15.73 C-21.49 34.9 -21.49 34.9 -23.75 37.16 C-27.62 37.71 -31.49 38.21 -35.38 38.66 C-47.65 40.14 -47.65 40.14 -51.88 41.07 C-52.35 41.09 -52.35 41.09 -54.75 41.16 C-57.09 36.1 -58.44 31.43 -59.75 26.04 C-60.75 23.16 -60.75 23.16 -64.75 22.16 C-64.18 24.45 -63.6 26.73 -63 29 C-62.73 30.03 -62.46 31.05 -62.19 32.1 C-62.05 32.61 -62.05 32.61 -61.37 35.19 C-60.75 38.16 -60.75 38.16 -60.75 43.16 C-65.84 45.75 -70.09 46.52 -75.75 46.16 C-75.75 46.82 -75.75 47.48 -75.75 48.16 C-87.33 53.11 -87.33 53.11 -92.75 51.16 C-94.75 49.16 -94.75 49.16 -94.75 44.16 C-95.25 44 -95.25 44 -97.75 43.16 C-98.08 42.34 -98.08 42.34 -99.75 38.16 C-100.74 38.82 -101.73 39.48 -102.75 40.16 C-102.32 41.07 -101.88 41.97 -101.44 42.9 C-100.88 44.08 -100.32 45.26 -99.75 46.48 C-99.19 47.65 -98.64 48.82 -98.06 50.03 C-96.75 53.16 -96.75 53.16 -96.75 56.16 C-98.4 56.82 -100.05 57.48 -101.75 58.16 C-102.74 59.15 -103.73 60.14 -104.75 61.16 C-107.39 62.22 -110.05 63.26 -112.75 64.16 C-112.75 64.82 -112.75 65.48 -112.75 66.16 C-113.22 66.32 -113.22 66.32 -115.62 67.1 C-118.75 68.16 -118.75 68.16 -120.75 71.16 C-122.07 71.16 -123.39 71.16 -124.75 71.16 C-124.75 71.82 -124.75 72.48 -124.75 73.16 C-128.75 76.16 -128.75 76.16 -133.75 78.16 C-134.08 78.82 -134.08 78.82 -135.75 82.16 C-137.07 82.49 -138.39 82.82 -139.75 83.16 C-140.72 84.32 -141.69 85.47 -142.69 86.66 C-145.75 90.16 -145.75 90.16 -150.75 91.16 C-151.08 92.81 -151.41 94.46 -151.75 96.16 C-154.52 98.75 -157.41 100.92 -160.5 103.1 C-163.2 105.58 -163.73 107.7 -164.75 111.16 C-165.41 111.16 -166.07 111.16 -166.75 111.16 C-167.41 112.48 -168.07 113.8 -168.75 115.16 C-169.08 115.33 -169.08 115.33 -170.75 116.16 C-171.41 117.81 -172.07 119.46 -172.75 121.16 C-174.9 124.7 -176.29 126.86 -179.75 129.16 C-180.78 131.82 -181.77 134.49 -182.75 137.16 C-184.33 140.08 -185.96 142.98 -187.62 145.85 C-194.58 158.19 -198.92 170.68 -202.31 184.41 C-203.32 188.44 -204.38 192.26 -205.75 196.16 C-209.65 211.75 -209.19 229.15 -209.75 245.16 C-212.75 244.16 -212.75 244.16 -213.75 240.16 C-215.93 205.6 -215.93 205.6 -211.75 195.16 C-212.08 195.16 -212.41 195.16 -212.75 195.16 C-212.14 186.51 -210.74 178.21 -208.94 169.73 C-208.81 169.1 -208.81 169.1 -208.19 165.93 C-207.93 164.73 -207.68 163.53 -207.42 162.29 C-207.19 161.21 -206.97 160.13 -206.74 159.01 C-205.75 156.16 -205.75 156.16 -201.75 152.16 C-201.67 149.5 -201.68 146.83 -201.75 144.16 C-197.47 128.36 -187.47 112.86 -178.75 99.16 C-178.03 98.01 -177.31 96.85 -176.56 95.66 C-174.75 93.16 -174.75 93.16 -172.75 93.16 C-172.09 91.51 -171.43 89.86 -170.75 88.16 C-167.31 83.64 -163.51 79.42 -159.75 75.16 C-158.74 74.02 -157.73 72.87 -156.68 71.68 C-149.16 63.3 -149.16 63.3 -145.75 62.16 C-145.09 60.84 -144.43 59.52 -143.75 58.16 C-141.71 56.24 -139.59 54.4 -137.44 52.6 C-136.31 51.65 -135.18 50.7 -134.01 49.72 C-126.93 44.16 -126.93 44.16 -123.75 44.16 C-123.42 43.17 -123.09 42.18 -122.75 41.16 C-121.43 40.5 -120.11 39.84 -118.75 39.16 C-117.76 38.17 -116.77 37.18 -115.75 36.16 C-113.77 35.12 -111.78 34.11 -109.75 33.16 C-107.75 32.16 -107.75 32.16 -105.75 30.16 C-103.17 28.81 -100.56 27.51 -97.94 26.23 C-93.4 24.01 -89.08 21.76 -84.75 19.16 C-80.01 16.88 -75.93 15.89 -70.75 15.16 C-70.42 14.5 -70.09 13.84 -69.75 13.16 C-57.03 8.88 -43.89 5.86 -30.75 3.16 C-28.89 2.77 -27.04 2.38 -25.12 1.98 C-16.76 0.71 -8.44 0.37 0 0 Z " fill="#BF903D" transform="translate(555.75,223.8359375)"/>
<path d="M0 0 C1.93 3.85 2.55 6.55 3.25 10.75 C6.44 27.31 13.22 42.03 24 55 C24.66 55.79 25.31 56.58 25.99 57.39 C35.43 68.35 46.25 76.53 58.76 83.71 C63.72 87.21 64.23 91.35 64.64 97.05 C64.74 98.29 64.84 99.52 64.94 100.79 C65.04 102.13 65.14 103.48 65.25 104.88 C66.46 119.32 68.09 133.69 69.94 148.06 C70.07 149.08 70.2 150.09 70.33 151.13 C72.04 164.42 73.93 177.64 76.34 190.82 C77 195 77 195 77 201 C76.34 200.67 76.34 200.67 73 199 C72.67 199.66 72.34 200.32 72 201 C70.35 201.66 68.7 202.32 67 203 C66.67 202.01 66.34 201.02 66 200 C66.99 199.67 67.98 199.34 69 199 C66.52 192.79 65.01 193.04 59 191 C59 190.34 59 189.68 59 189 C58.03 188.69 57.06 188.38 56.06 188.06 C53 187 53 187 52 184 C51.34 183.34 51.34 183.34 48 180 C48 179.34 48 178.68 48 178 C47.34 178 46.68 178 46 178 C46 177.34 46 176.68 46 176 C45.34 176.33 45.34 176.33 42 178 C37 178 37 178 34 175 C32.35 174.34 30.7 173.68 29 173 C29 172.01 29 171.02 29 170 C26.73 168.03 26.73 168.03 23.75 165.94 C22.78 165.25 21.8 164.55 20.8 163.84 C18 162 18 162 14 160 C14 159.01 14 158.02 14 157 C9 155.81 9 155.81 4 155 C4.33 153.35 4.66 151.7 5 150 C3.68 148.68 2.36 147.36 1 146 C-0.06 144.03 -1.04 142.02 -2 140 C-3.59 137.16 -5.18 134.32 -6.79 131.49 C-8 129 -8 129 -8 126 C-8.66 126 -9.32 126 -10 126 C-11.27 120.94 -11.06 116.2 -11 111 C-1 122.54 -1 122.54 -1 128 C-0.34 128 0.32 128 1 128 C1.6 129.22 2.2 130.43 2.81 131.69 C5.44 136.87 8.21 139.8 13 143 C13.33 143.66 13.33 143.66 15 147 C15.99 146.67 15.99 146.67 21 145 C20.01 143.35 19.02 141.7 18 140 C17.67 138.68 17.34 137.36 17 136 C16.34 136 15.68 136 15 136 C13 131 13 131 12 126 C11.34 126 10.68 126 10 126 C9.67 125.01 9.34 124.02 9 123 C7.68 122.34 6.36 121.68 5 121 C4.67 121.99 4.34 122.98 4 124 C3 119 3 119 3.6 115.63 C4.45 107.95 0.13 99.94 -5.44 94.88 C-6.28 94.26 -7.13 93.64 -8 93 C-7.67 91.68 -7.34 90.36 -7 89 C-7.66 87.68 -8.32 86.36 -9 85 C-9.5 85.16 -9.5 85.16 -12 86 C-12 83.67 -12 81.33 -12 79 C-12.19 77.87 -12.37 76.73 -12.56 75.56 C-13 72 -13 72 -12 69 C-12.66 68.67 -13.32 68.34 -14 68 C-14 66.68 -14 65.36 -14 64 C-14.74 60.47 -15.54 56.95 -16.38 53.44 C-16.82 51.56 -17.26 49.68 -17.71 47.75 C-19 43 -19 43 -21 40 C-21.87 35.36 -22.53 30.7 -23.22 26.03 C-24 22 -24 22 -26 20 C-25.34 20 -24.68 20 -24 20 C-24 18.35 -24 16.7 -24 15 C-19.92 9 -19.92 9 -15 9 C-14.67 8.01 -14.34 7.02 -14 6 C-11.68 5.3 -9.34 4.64 -7 4 C-4.64 2.72 -2.29 1.4 0 0 Z " fill="#C3923B" transform="translate(539,503)"/>
<path d="M0 0 C-0.05 1.7 -0.09 3.41 -0.14 5.16 C-0.84 41.04 13.47 67.86 44.69 86.81 C48.94 89.35 52.63 91.23 57.31 92.94 C63.76 98.29 62.65 106.03 63 114 C65.73 158.33 71.75 203.59 82.15 246.8 C82.93 250.67 83.17 254.06 83 258 C64.18 252.35 46.44 243.95 29 235 C26.6 233.83 24.21 232.67 21.81 231.5 C-8.83 216.14 -35.91 193.09 -60 169 C-60 168.34 -60 167.68 -60 167 C-60.99 166.67 -61.98 166.34 -63 166 C-66 163 -66 163 -65.44 159.31 C-64.96 157.56 -64.49 155.81 -64 154 C-63.33 151.36 -62.66 148.71 -62 146.06 C-61.65 144.68 -61.31 143.3 -60.95 141.87 C-55.94 121.42 -55.79 100.76 -59 80 C-59.21 78.66 -59.41 77.33 -59.62 75.95 C-62.6 58.58 -67.66 33.4 -86 26 C-98.72 24.93 -105.49 28.24 -114 38 C-121.88 51.49 -122.9 65.46 -124.29 80.69 C-125.73 94.84 -127.99 108.32 -138 119 C-139.2 120.28 -140.39 121.56 -141.62 122.88 C-157.91 136.74 -181.28 145.22 -202.44 145.06 C-204.04 145.05 -205.65 145.04 -207.31 145.04 C-208.53 145.02 -209.74 145.01 -211 145 C-207.21 137.42 -204.94 136.42 -196.75 135.06 C-176.9 131.39 -146.77 123.44 -138.95 102.13 C-135.7 91.04 -134.36 79.89 -133.02 68.43 C-130.51 48.59 -125.2 29.64 -107 19 C-97.37 15.43 -89.87 15.22 -80 18 C-80 18.66 -80 19.32 -80 20 C-78.35 20.66 -76.7 21.32 -75 22 C-59.41 34.07 -53.88 51.34 -50 70 C-49.85 70.69 -49.85 70.69 -49.09 74.19 C-44.21 100.65 -45.29 129.34 -52.46 155.27 C-53.14 161.21 -52.2 162.19 -47.81 166.06 C-46.69 167.07 -45.57 168.09 -44.41 169.13 C-43.29 170.08 -42.16 171.02 -41 172 C-40.1 172.77 -39.2 173.54 -38.27 174.34 C-35.55 176.61 -32.78 178.8 -30 181 C-29.49 181.43 -29.49 181.43 -26.93 183.59 C1.65 207.34 35.18 225.83 69 241 C68.67 239.45 68.35 237.91 68.01 236.31 C64.48 219.53 61.16 202.81 58.81 185.81 C58.26 181.84 57.68 177.87 57.06 173.91 C54.53 157.37 52.84 140.8 51.39 124.13 C51.24 122.4 51.09 120.67 50.93 118.89 C50.8 117.34 50.67 115.8 50.53 114.21 C49.55 106.45 48.97 102.78 41.75 99.25 C13.18 84.06 -8.14 56.67 -12 24 C-12.07 20.88 -12.09 17.75 -12.06 14.62 C-12.05 13.01 -12.04 11.39 -12.04 9.73 C-12.03 9.11 -12.03 9.11 -12 6 C-11.34 6 -10.68 6 -10 6 C-10 5.34 -10 4.68 -10 4 C-2.71 0 -2.71 0 0 0 Z " fill="#BC8E3F" transform="translate(558,482)"/>
<path d="M0 0 C0.52 0 0.52 0 3.16 0 C19.85 0.04 36 1 52.38 4.38 C52.93 4.48 52.93 4.48 55.72 5.04 C70.38 8 84.42 11.94 98.38 17.38 C99.71 17.81 101.05 18.25 102.43 18.71 C103.4 19.26 104.37 19.81 105.38 20.38 C105.38 27.49 104.14 29.53 98.38 33.38 C88.48 34.26 81.19 32.28 71.9 28.96 C32.5 15.15 -14.43 13.94 -54.62 24.38 C-56.27 24.78 -57.91 25.19 -59.6 25.61 C-67.64 27.64 -75.14 29.75 -82.62 33.38 C-83.46 33.66 -83.46 33.66 -87.69 35.12 C-104.6 41.18 -123.81 50.56 -136.62 63.38 C-138.05 64.3 -139.47 65.23 -140.94 66.19 C-144.73 68.76 -147.55 71.05 -150.62 74.38 C-152.29 76.04 -153.96 77.71 -155.62 79.38 C-156.99 80.8 -158.35 82.22 -159.75 83.69 C-163.62 87.38 -163.62 87.38 -166.62 87.38 C-166.79 87.87 -166.79 87.87 -167.62 90.38 C-168.94 91.69 -170.26 93.01 -171.62 94.38 C-171.95 95.03 -171.95 95.03 -173.62 98.38 C-177.62 102.38 -177.62 102.38 -180.62 102.38 C-181.28 103.69 -181.94 105.01 -182.62 106.38 C-183.62 108.02 -184.61 109.68 -185.62 111.38 C-186.28 112.69 -186.94 114.01 -187.62 115.38 C-189.5 118.83 -191.49 122.06 -193.62 125.38 C-194.62 125.38 -195.61 125.38 -196.62 125.38 C-196.65 125.77 -196.65 125.77 -196.8 127.75 C-197.94 132.77 -200.41 136.96 -202.88 141.44 C-207.08 149.26 -210.72 156.99 -213.62 165.38 C-214.04 166.44 -214.46 167.51 -214.89 168.61 C-218.16 177.16 -220.07 185.71 -221.73 194.71 C-222.03 195.92 -222.32 197.13 -222.62 198.38 C-223.29 198.38 -223.94 198.38 -224.62 198.38 C-225.22 204.4 -225.76 210.32 -225.62 216.38 C-225.95 216.38 -226.29 216.38 -226.62 216.38 C-226.65 217.83 -226.68 219.28 -226.7 220.78 C-226.8 226.18 -226.9 231.58 -227 236.98 C-227.04 239.32 -227.08 241.65 -227.12 243.99 C-227.18 247.35 -227.24 250.71 -227.31 254.07 C-227.33 255.11 -227.34 256.15 -227.36 257.22 C-227.46 262.03 -227.64 266.66 -228.62 271.38 C-234.5 268.87 -234.5 268.87 -235.62 264.38 C-236.29 264.38 -236.94 264.38 -237.62 264.38 C-241.45 242.01 -238.9 215.59 -234.62 193.38 C-234.48 192.6 -234.48 192.6 -233.75 188.7 C-231.55 177.96 -228.26 167.71 -224.62 157.38 C-224.31 156.38 -223.99 155.39 -223.66 154.37 C-215.11 129.71 -201.28 106.38 -184.42 86.54 C-182.62 84.38 -182.62 84.38 -180.38 80.94 C-178.43 78.09 -176.37 76.45 -173.62 74.38 C-171.94 72.73 -170.27 71.06 -168.62 69.38 C-160.81 61.43 -152.6 54.48 -143.69 47.81 C-142.83 47.17 -141.98 46.52 -141.1 45.85 C-127.12 35.38 -127.12 35.38 -123.62 35.38 C-123.62 34.72 -123.62 34.06 -123.62 33.38 C-121.66 32.3 -119.65 31.32 -117.62 30.38 C-116.49 29.79 -115.35 29.21 -114.17 28.61 C-89.16 15.93 -64.41 6.72 -36.62 2.38 C-35.66 2.2 -34.69 2.02 -33.7 1.84 C-22.51 -0.03 -11.32 -0.02 0 0 Z " fill="#BF903E" transform="translate(561.625,198.625)"/>
<path d="M0 0 C4.38 3.6 8.45 7.41 12.44 11.44 C17.64 16.69 22.83 21.89 29 26 C29 26.66 29 27.32 29 28 C30.32 28.66 31.64 29.32 33 30 C34.95 31.59 36.86 33.22 38.75 34.88 C52.21 46.38 66.92 58.41 83.07 65.88 C86 68 86 68 86.02 71.05 C85.62 72.32 85.22 73.58 84.81 74.88 C82.59 82.8 80.69 90.69 79.06 98.75 C78.94 99.37 78.94 99.37 78.3 102.53 C75.09 118.9 73.06 135.45 71 152 C68.26 149.26 66.15 146.56 63.88 143.44 C54.54 130.9 43.36 118.53 30.67 109.31 C11.99 93.16 6.63 73.42 6.5 49.88 C6.41 32.6 4.05 16.76 0 0 Z " fill="#C68154" transform="translate(520,693)"/>
<path d="M0 0 C5.05 0.63 7.57 3.27 11.5 6.44 C16.23 9.37 20.99 12.16 25.88 14.81 C45.26 25.82 57.76 37.49 67.84 57.45 C69.5 60.44 69.5 60.44 71.5 61.44 C71.64 60.59 71.64 60.59 72.38 56.31 C73.18 52.13 73.91 48.36 75.5 44.44 C75.83 44.44 76.16 44.44 76.5 44.44 C76.51 45.28 76.52 46.12 76.53 46.99 C76.93 76.04 79.33 104.44 87.5 132.44 C83.85 130.61 81.16 128.74 78 126.19 C77.06 125.44 76.12 124.69 75.16 123.92 C69.3 118.44 67.96 113.99 67.06 106.06 C64.63 88.22 59.21 69.78 46.5 56.44 C46.5 55.78 46.5 55.12 46.5 54.44 C45.18 53.78 43.86 53.12 42.5 52.44 C41.1 51.24 39.69 50.05 38.25 48.81 C29.39 41.62 18.82 36.22 7.5 34.44 C7.17 34.11 6.84 33.78 6.5 33.44 C-9.98 31.22 -25.86 31.5 -41.82 36.34 C-45.5 37.44 -45.5 37.44 -48.5 37.44 C-48.5 38.1 -48.5 38.76 -48.5 39.44 C-50.82 40.14 -53.16 40.79 -55.5 41.44 C-71.79 47.12 -88.05 54.75 -102.74 63.81 C-105.47 65.42 -108.23 66.82 -111.07 68.2 C-117.37 71.32 -123.44 74.75 -129.5 78.31 C-130.55 78.92 -131.59 79.53 -132.67 80.16 C-138.15 83.38 -143.51 86.7 -148.75 90.31 C-153.5 93.44 -153.5 93.44 -157.5 93.44 C-157.66 93.93 -157.66 93.93 -158.5 96.44 C-159.82 96.44 -161.14 96.44 -162.5 96.44 C-162.5 97.1 -162.5 97.76 -162.5 98.44 C-175.63 100.77 -185.27 95.2 -195.5 87.44 C-195.5 86.78 -195.5 86.12 -195.5 85.44 C-196.16 85.44 -196.82 85.44 -197.5 85.44 C-197.5 81.31 -191.61 79.36 -188.5 77.44 C-184.5 76.44 -184.5 76.44 -181.5 77.44 C-181.5 78.1 -181.5 78.76 -181.5 79.44 C-178.18 80.17 -174.85 80.83 -171.5 81.44 C-171 81.6 -171 81.6 -168.5 82.44 C-158.7 83.42 -150.36 77.4 -142.06 72.81 C-141.58 72.55 -141.58 72.55 -139.14 71.21 C-133.34 68.02 -127.58 64.8 -121.81 61.56 C-109.85 54.91 -97.7 48.63 -85.5 42.44 C-84.56 41.96 -83.61 41.48 -82.64 40.98 C-45.37 22.15 -2.56 9.48 35.67 33.42 C38.36 35.34 40.94 37.34 43.5 39.44 C44.84 40.47 46.18 41.5 47.56 42.56 C60.05 54.86 71.5 74.29 71.5 92.44 C72.16 92.44 72.82 92.44 73.5 92.44 C72.88 88.09 72.21 83.77 71.5 79.44 C71.34 78.39 71.18 77.35 71.02 76.28 C68.24 61.46 59.53 43.45 45.5 36.44 C45.17 37.1 44.84 37.76 44.5 38.44 C43.5 36.44 43.5 36.44 44.5 32.44 C42.85 31.78 41.2 31.12 39.5 30.44 C37.99 29.51 36.49 28.58 34.94 27.62 C29.38 24.22 23.56 21.8 17.5 19.44 C15.85 18.78 14.2 18.12 12.5 17.44 C-9.62 12.49 -32.57 14.26 -53.5 22.81 C-57.5 24.44 -57.5 24.44 -60.5 23.44 C-13.06 1.63 -13.06 1.63 0 0 Z " fill="#BC8F41" transform="translate(673.5,402.5625)"/>
<path d="M0 0 C4.52 4.52 4.79 4.97 4 11 C2.25 15.44 2.25 15.44 0 20 C-0.6 21.53 -1.2 23.05 -1.81 24.62 C-4 28 -4 28 -7.31 28.19 C-11 27 -14.49 25.65 -18 24 C-14.89 27.53 -12.02 29.6 -7.94 32.06 C2.37 38.52 22 55.15 22 68 C21.28 67.4 20.56 66.8 19.81 66.19 C14.73 62.23 8.98 59.21 3.44 55.94 C1.95 55.06 0.46 54.18 -1.07 53.28 C-3.67 51.77 -6.31 50.34 -9 49 C-9 48.34 -9 47.68 -9 47 C-10.32 46.34 -11.64 45.68 -13 45 C-17.56 41.58 -20.76 38.05 -23.94 33.38 C-28.55 26.79 -33.14 24.57 -41 23 C-44 24 -44 24 -45 26 C-43.02 26 -41.04 26 -39 26 C-34.65 28.4 -31.4 31.41 -28 35 C-27.01 35.99 -26.02 36.98 -25 38 C-25 38.66 -25 39.32 -25 40 C-27.62 40.77 -30.27 41.41 -32.94 42 C-34.48 42.35 -36.03 42.7 -37.62 43.05 C-40.93 43.77 -44.24 44.45 -47.56 45.12 C-48.13 45.27 -48.13 45.27 -51 46 C-51 46.66 -51 47.32 -51 48 C-53.32 48.99 -55.64 49.96 -58 50.85 C-62.13 52.43 -66.18 54.2 -70.24 55.95 C-73 57 -73 57 -78 58 C-80 56 -80 56 -81 52.88 C-81.33 51.93 -81.66 50.98 -82 50 C-84 50 -84 50 -86 51 C-85.3 52.22 -84.6 53.43 -83.88 54.69 C-82 59 -82 59 -84 64 C-85.65 64.33 -87.3 64.66 -89 65 C-92.01 66.65 -95.01 68.31 -98 70 C-98.66 70 -99.32 70 -100 70 C-100 70.66 -100 71.32 -100 72 C-102.39 73.46 -104.84 74.82 -107.31 76.12 C-108.67 76.85 -110.03 77.57 -111.43 78.32 C-115 80 -115 80 -118 80 C-120.95 75.62 -123.3 71.26 -124 66 C-120.82 62.34 -118.85 61.97 -114 61 C-114.66 60.01 -115.32 59.02 -116 58 C-121.62 59.19 -121.62 59.19 -127 61 C-127 61.66 -127 62.32 -127 63 C-128.32 63.33 -129.64 63.66 -131 64 C-130.43 65.11 -129.87 66.22 -129.29 67.36 C-128.55 68.81 -127.82 70.26 -127.06 71.75 C-126.33 73.19 -125.6 74.63 -124.85 76.11 C-123 80 -123 80 -122 84 C-126.31 86.62 -126.31 86.62 -131 89 C-131.66 89.66 -132.32 90.32 -133 91 C-134.57 91.62 -136.13 92.24 -137.75 92.88 C-143 95 -143 95 -146.19 97.12 C-149.59 99.39 -151.89 100.7 -156 101 C-159.35 96.83 -162.01 92.31 -163 87 C-160 84 -160 84 -156.81 82.44 C-155.88 81.96 -154.96 81.49 -154 81 C-154 80.34 -154 79.68 -154 79 C-157.44 78.81 -157.44 78.81 -161 79 C-161.16 79.5 -161.16 79.5 -162 82 C-162.66 82 -163.32 82 -164 82 C-164 82.66 -164 83.32 -164 84 C-165.65 84 -167.3 84 -169 84 C-168.45 85.1 -167.89 86.19 -167.32 87.32 C-166.6 88.76 -165.87 90.2 -165.12 91.69 C-164.41 93.11 -163.69 94.54 -162.95 96.01 C-161 100 -161 100 -159 105 C-164.89 110 -164.89 110 -167 110 C-167.14 108.7 -167.29 107.4 -167.44 106.06 C-168 102 -168 102 -169 101 C-169.25 102.2 -169.5 103.39 -169.75 104.62 C-172.32 113.63 -176.26 116.55 -185 120 C-192.39 120.82 -197.55 119.74 -204 116 C-204 110.73 -201.88 107.63 -199.41 103.07 C-197.99 99.99 -197.4 97.35 -197 94 C-197.66 94 -198.32 94 -199 94 C-198.67 92.35 -198.34 90.7 -198 89 C-197.01 89.33 -196.02 89.66 -195 90 C-192.37 88.79 -192.37 88.79 -189.44 87.06 C-184.18 84 -184.18 84 -182 84 C-180.88 87 -180.88 87 -180 90 C-180.61 90.2 -180.61 90.2 -183.69 91.19 C-189.61 93.68 -192.15 96.3 -195 102 C-195.38 106.12 -195.38 106.12 -195 110 C-190.27 112.37 -187.23 112.46 -182 112 C-181.67 110.68 -181.34 109.36 -181 108 C-180.34 108 -179.68 108 -179 108 C-179 105.69 -179 103.38 -179 101 C-180.32 101 -181.64 101 -183 101 C-182.67 102.65 -182.34 104.3 -182 106 C-187 109 -187 109 -192 108 C-191.43 100.69 -189.62 97.31 -183 94 C-177 94 -177 94 -174 95 C-175.11 90.58 -176.54 86.32 -178 82 C-177.04 81.53 -176.07 81.06 -175.08 80.57 C-174.45 80.26 -174.45 80.26 -171.25 78.69 C-170 78.07 -168.74 77.46 -167.45 76.82 C-164 75 -164 75 -160 72 C-154.6 68.85 -154.6 68.85 -150 70 C-148.3 72.43 -148.3 72.43 -146.75 75.44 C-146.49 75.93 -146.49 75.93 -145.17 78.43 C-144 81 -144 81 -144 83 C-151.38 88 -151.38 88 -154 88 C-153.67 88.5 -153.67 88.5 -152 91 C-148.24 89.5 -145 87.97 -141.5 86 C-138 84.03 -134.76 82.5 -131 81 C-131.59 79.98 -132.18 78.95 -132.79 77.89 C-133.54 76.55 -134.29 75.2 -135.06 73.81 C-135.44 73.15 -135.44 73.15 -137.35 69.77 C-139 66 -139 66 -138 61 C-134.61 58.69 -131.34 56.7 -127.75 54.75 C-126.79 54.21 -125.84 53.67 -124.86 53.11 C-120.5 50.69 -116.92 48.98 -112 48 C-109.95 50.17 -109.95 50.17 -108.12 53.19 C-107.51 54.17 -106.89 55.15 -106.26 56.17 C-105 59 -105 59 -106 63 C-112.11 67 -112.11 67 -115 67 C-114.67 67.5 -114.67 67.5 -113 70 C-103.25 65.25 -103.25 65.25 -101 63 C-100.32 62.83 -100.32 62.83 -96.88 62 C-96.24 61.83 -96.24 61.83 -93 61 C-93 60.34 -93 59.68 -93 59 C-92.34 59 -91.68 59 -91 59 C-91.58 57.87 -92.15 56.74 -92.75 55.57 C-93.49 54.1 -94.24 52.64 -95 51.12 C-95.74 49.66 -96.49 48.2 -97.25 46.7 C-99 43 -99 43 -99 41 C-96.22 39.29 -93.37 37.68 -90.5 36.12 C-88.92 35.26 -87.34 34.4 -85.72 33.51 C-73.47 27 -73.47 27 -71 27 C-69.46 29.27 -69.46 29.27 -67.81 32.25 C-67.26 33.22 -66.71 34.2 -66.14 35.2 C-65 38 -65 38 -66 42 C-67.64 43.36 -69.31 44.7 -71 46 C-71 46.66 -71 47.32 -71 48 C-63.74 44.7 -56.48 41.4 -49 38 C-50.65 36.35 -52.3 34.7 -54 33 C-56.86 28.37 -57 26.76 -57 21 C-53.12 13.81 -48.74 10.16 -40.62 9.69 C-34.79 9.71 -30.25 11.1 -24.82 13.1 C-18.83 15.01 -12.65 14.76 -7 12 C-3.49 8.49 -1.8 4.59 0 0 Z " fill="#B98D44" transform="translate(698,359)"/>
<path d="M0 0 C8.86 11.56 10.45 24.94 6 38.81 C5.65 39.63 5.65 39.63 3.88 43.75 C3.22 43.75 2.56 43.75 1.88 43.75 C1.55 44.74 1.22 45.73 0.88 46.75 C0.22 46.75 -0.44 46.75 -1.12 46.75 C-1.78 48.07 -2.44 49.39 -3.12 50.75 C-12.94 59.99 -24.4 60.74 -37.12 58.75 C-47.42 54.88 -47.42 54.88 -49.12 49.75 C-50.12 49.42 -51.11 49.09 -52.12 48.75 C-52.79 47.1 -53.44 45.45 -54.12 43.75 C-54.79 43.75 -55.44 43.75 -56.12 43.75 C-62.13 30.56 -62.44 15.91 -54.44 3.62 C-39.47 -13.89 -16.93 -17.61 0 0 Z " fill="#BD8E3D" transform="translate(485.125,421.25)"/>
<path d="M0 0 C1.12 4.47 1.37 6.6 0 11 C-4.92 14.96 -8.75 17.26 -15 18 C-15.99 18.99 -16.98 19.98 -18 21 C-18.66 21.33 -18.66 21.33 -22 23 C-25.82 28.73 -24.94 32.67 -23 39 C-22.51 41.97 -22.07 44.95 -21.66 47.94 C-20.88 51.54 -19.45 54.61 -18 58 C-15.62 66.59 -13.85 75.13 -13 84 C-12.38 86.68 -11.72 89.35 -11 92 C-11.66 92 -12.32 92 -13 92 C-13 93.65 -13 95.3 -13 97 C-12.34 96.67 -12.34 96.67 -9 95 C-9 96.32 -9 97.64 -9 99 C-8.67 99.16 -8.67 99.16 -7 100 C-7.66 101.32 -8.32 102.64 -9 104 C-8.01 104.33 -7.02 104.66 -6 105 C2.23 113.23 5.14 122.67 3 134 C3.33 133.34 3.66 132.68 4 132 C5.65 132.66 7.3 133.32 9 134 C9 134.99 9 135.98 9 137 C9.66 137 10.32 137 11 137 C11.68 139.33 12.34 141.66 13 144 C13.66 144.33 14.32 144.66 15 145 C14.67 145.66 14.34 146.32 14 147 C14.66 147 15.32 147 16 147 C19 152 19 152 21 156 C20.34 156.99 19.68 157.98 19 159 C18.67 158.67 18.34 158.34 18 158 C16.35 158.33 14.7 158.66 13 159 C12.84 158.17 12.84 158.17 12 154 C10.35 153.34 8.7 152.68 7 152 C2.91 147.91 1.44 144.53 0 139 C-0.66 139 -1.32 139 -2 139 C-3.24 137.11 -4.4 135.16 -5.5 133.19 C-7.27 130.06 -9 126.99 -11 124 C-11 128.29 -11 132.58 -11 137 C-10.34 137 -9.68 137 -9 137 C-7.82 139.12 -6.73 141.3 -5.69 143.5 C-2.54 149.99 1 156 5 162 C4.34 163.32 3.68 164.64 3 166 C4.09 165.96 5.19 165.92 6.31 165.88 C10 166 10 166 13 168 C13 168.99 13 169.98 13 171 C14.32 171.33 15.64 171.66 17 172 C19.13 173.39 21.21 174.85 23.25 176.38 C24.33 177.17 25.41 177.96 26.52 178.77 C29 181 29 181 29 184 C30.65 184.33 32.3 184.66 34 185 C34 185.66 34 186.32 34 187 C38.21 187.73 40.8 188.05 45 187 C45 187.66 45 188.32 45 189 C45.66 189 46.32 189 47 189 C47.66 190.32 48.32 191.64 49 193 C49.5 193.33 49.5 193.33 52 195 C52 195.99 52 196.98 52 198 C53.99 198.7 55.99 199.37 58 200 C58 200.66 58 201.32 58 202 C59.46 202.43 60.93 202.87 62.44 203.31 C67 205 67 205 68 210 C67.34 210.66 66.68 211.32 66 212 C68 212 68 212 70.94 211 C74 210 74 210 77 210 C77.79 213.64 78.46 217.31 79 221 C72.69 219.02 67.09 216.12 61.25 213.06 C60.69 212.77 60.69 212.77 57.88 211.3 C27.94 195.51 -6.4 174.71 -29 149 C-29 144.62 -28.12 140.61 -27.28 136.32 C-27.02 134.97 -26.77 133.63 -26.5 132.25 C-26.24 131 -25.98 129.74 -25.72 128.45 C-20.76 97.7 -21.41 58.88 -35.94 30.69 C-36.61 29.37 -37.28 28.06 -37.96 26.7 C-40 23 -40 23 -42.25 19.64 C-44 17 -44 17 -44 15 C-42.21 15.33 -40.41 15.66 -38.56 16 C-25.75 16.99 -14.25 8.64 -4.22 1.47 C-2 0 -2 0 0 0 Z " fill="#72481E" transform="translate(540,492)"/>
<path d="M0 0 C0 0.66 0 1.32 0 2 C1.65 2.66 3.3 3.32 5 4 C20.59 16.07 26.12 33.34 30 52 C30.15 52.69 30.15 52.69 30.91 56.19 C35.49 81.07 34.42 107.37 29 132 C28.67 133.7 28.33 135.4 27.99 137.14 C27.66 138.42 27.34 139.69 27 141 C26.34 141 25.68 141 25 141 C27.82 145.66 30.82 148.56 35 152 C42.15 159.38 42.15 159.38 41 164 C36 166 36 166 33.54 164.44 C32.72 163.63 31.9 162.83 31.06 162 C30.2 161.16 29.34 160.33 28.45 159.46 C27.64 158.65 26.83 157.84 26 157 C24.8 155.87 23.61 154.73 22.38 153.56 C20 151 20 151 20 149 C19.01 148.67 18.02 148.34 17 148 C14 145 14 145 14.56 141.31 C15.04 139.56 15.51 137.81 16 136 C16.67 133.36 17.34 130.71 18 128.06 C18.35 126.68 18.69 125.3 19.05 123.87 C24.06 103.42 24.21 82.76 21 62 C20.79 60.66 20.59 59.33 20.38 57.95 C17.4 40.58 12.34 15.4 -6 8 C-18.72 6.93 -25.49 10.24 -34 20 C-41.88 33.49 -42.9 47.46 -44.29 62.69 C-45.73 76.84 -47.99 90.32 -58 101 C-59.2 102.28 -60.39 103.56 -61.62 104.88 C-77.91 118.74 -101.28 127.22 -122.44 127.06 C-124.04 127.05 -125.65 127.04 -127.31 127.04 C-128.53 127.02 -129.74 127.01 -131 127 C-127.21 119.42 -124.94 118.42 -116.75 117.06 C-96.9 113.39 -66.77 105.44 -58.95 84.13 C-55.7 73.04 -54.36 61.89 -53.02 50.43 C-50.51 30.59 -45.2 11.64 -27 1 C-17.37 -2.57 -9.87 -2.78 0 0 Z " fill="#B98C41" transform="translate(478,500)"/>
<path d="M0 0 C3.53 1.76 3.86 5.42 5 9 C5 22.28 -8.51 34.4 -17 44 C-17.73 44.85 -18.45 45.7 -19.2 46.57 C-32.35 61.69 -48.15 73.92 -64.05 85.98 C-67.03 88.26 -69.96 90.57 -72.88 92.94 C-76.91 95.93 -80.94 98.21 -85.38 100.54 C-88 102 -88 102 -92 105 C-95.78 107.84 -99.63 110.03 -103.81 112.23 C-107.66 114.36 -111.35 116.7 -115.06 119.06 C-120.91 122.75 -126.78 125.97 -133 129 C-137.23 131.38 -141.45 133.78 -145.66 136.21 C-149 138 -149 138 -151 138 C-151 138.66 -151 139.32 -151 140 C-152.65 140.33 -154.3 140.66 -156 141 C-156.33 141.99 -156.66 142.98 -157 144 C-159.64 145.39 -162.34 146.67 -165.06 147.88 C-171 150.58 -176.59 153.32 -182 157 C-183.13 157.72 -184.27 158.44 -185.44 159.19 C-188 161 -188 161 -189 163 C-190.65 163.33 -192.3 163.66 -194 164 C-196.34 164.65 -198.67 165.32 -201 166 C-202.28 162.17 -202.73 160.02 -202 156 C-198.74 153.69 -195.87 152.03 -192.31 150.31 C-190.28 149.27 -188.24 148.22 -186.21 147.18 C-185.69 146.91 -185.69 146.91 -183.06 145.58 C-178.44 143.19 -173.95 140.6 -169.44 138 C-167.69 137 -165.95 135.99 -164.2 134.99 C-162.48 134 -160.77 133.02 -159 132 C-158.16 131.52 -158.16 131.52 -153.89 129.11 C-96.63 96.63 -32.96 59.4 0 0 Z " fill="#BF9245" transform="translate(703,276)"/>
<path d="M0 0 C4.69 2.92 8.48 6.21 12.38 10.12 C13.43 11.18 14.49 12.23 15.59 13.32 C18 16 18 16 18 18 C19.32 18.66 20.64 19.32 22 20 C23.93 21.69 25.83 23.42 27.69 25.19 C39.61 36.26 39.61 36.26 46.04 39.56 C47.05 40.1 48.07 40.63 49.12 41.19 C50.08 41.63 51.03 42.08 52.01 42.54 C55.47 46.82 53.76 51.89 53 57 C52.91 57.73 52.91 57.73 52.43 61.44 C51.79 66.38 51.12 71.32 50.44 76.25 C50.32 77.11 50.32 77.11 49.73 81.43 C49.16 85.62 48.58 89.81 48 94 C45.26 91.26 43.15 88.56 40.88 85.44 C33.14 75.05 24.3 64.47 13.69 56.94 C8.12 50.99 7.52 44.86 6 37 C5.48 34.6 4.96 32.19 4.43 29.79 C3.87 27.19 3.31 24.6 2.75 22 C2.48 20.75 2.21 19.5 1.93 18.2 C0.65 12.04 -0.35 6.34 0 0 Z " fill="#F0B888" transform="translate(543,751)"/>
<path d="M0 0 C4.19 4 4.19 4 7 8 C5 9 5 9 3 8 C-8.94 7.16 -8.94 7.16 -13 13 C-15.77 17.66 -16.34 20.97 -16.19 26.38 C-16.16 27.62 -16.13 28.87 -16.11 30.15 C-16.07 31.09 -16.04 32.03 -16 33 C-15.63 31.16 -15.26 29.33 -14.88 27.44 C-13.41 21.66 -11.66 17.94 -7 14 C-1.11 12.8 3.01 14.89 8 18 C10.56 21.12 10.56 21.12 12 24 C11 26 11 26 7.12 27.81 C1.7 30.69 0.08 33.16 -0.19 39.31 C-0.13 40.53 -0.06 41.75 0 43 C0.95 41.72 1.9 40.44 2.88 39.12 C7.06 33.6 8.21 32.75 15 32 C16.82 37.63 17.56 43.05 18.12 48.94 C18.21 49.79 18.21 49.79 18.63 54.09 C18.75 55.38 18.88 56.67 19 58 C14.32 57.06 9.66 56.04 5 55 C6.01 55.55 7.02 56.1 8.06 56.67 C17.16 62.49 19.98 66.16 19.88 77.19 C19.65 80.46 19.38 83.74 19 87 C3.24 85.38 -11.47 64.11 -18.69 51.19 C-24.68 37.74 -26.88 22.92 -21 9 C-14.97 0.79 -10.22 -1.12 0 0 Z " fill="#E3B089" transform="translate(472,519)"/>
<path d="M0 0 C3.41 3.41 3.73 5.06 4.69 9.69 C4.94 10.87 5.19 12.05 5.45 13.26 C5.63 14.17 5.81 15.07 6 16 C5.34 16 4.68 16 4 16 C3.88 16.8 3.88 16.8 3.25 20.88 C2.3 26.53 1.19 32.14 0 37.75 C-0.16 38.53 -0.16 38.53 -1 42.48 C-1.33 43.64 -1.66 44.8 -2 46 C-2.66 46 -3.32 46 -4 46 C-5.09 43.84 -6.07 41.61 -7 39.38 C-7.52 38.15 -8.03 36.92 -8.56 35.65 C-10 32 -10 32 -11.06 28.54 C-11.37 27.7 -11.68 26.86 -12 26 C-12.66 26 -13.32 26 -14 26 C-14.94 28.11 -15.77 30.27 -16.56 32.44 C-24.82 53.82 -24.82 53.82 -32 61 C-32.66 61 -33.32 61 -34 61 C-34 61.66 -34 62.32 -34 63 C-22.43 58.37 -18.35 43.88 -14 33 C-10.57 34.72 -10.23 38.46 -9 41.94 C-6.21 49.79 -6.21 49.79 -4 52 C-4.38 55.62 -4.38 55.62 -5 59 C-8.51 59 -9.34 55.77 -11 53 C-11 52.34 -11 51.68 -11 51 C-15.77 52.59 -14.99 56.32 -16 61 C-18.31 66.69 -20.14 70.66 -26 73 C-31.21 72.46 -35.59 71.65 -40.36 69.45 C-48.68 66.14 -57.43 66.7 -65.31 70.69 C-72.08 76.77 -72.67 81.19 -72 90 C-70 95.19 -70 95.19 -68 99 C-68.83 99.16 -68.83 99.16 -73 100 C-75.62 96.25 -77.54 92.29 -79.62 88.22 C-82 85 -82 85 -84.99 84.87 C-89.24 86.47 -93.04 88.79 -97 91 C-97.66 90.67 -98.32 90.34 -99 90 C-97.93 89.3 -96.86 88.6 -95.75 87.88 C-95.06 87.43 -95.06 87.43 -91.56 85.12 C-90.87 84.67 -90.87 84.67 -87.38 82.38 C-84 80 -84 80 -83 78 C-82.17 77.67 -82.17 77.67 -78 76 C-60.57 64.7 -42.04 51.35 -29 35 C-27.82 34.01 -26.65 33.02 -25.44 32 C-15.13 22.71 -7.42 11.64 0 0 Z " fill="#BE9246" transform="translate(710,298)"/>
<path d="M0 0 C3.94 0.88 3.94 0.88 7 1 C6.34 2.32 5.68 3.64 5 5 C12.75 2.12 12.75 2.12 15 1 C13.38 7.46 10.7 9.58 5 13 C3.02 13 1.04 13 -1 13 C-1.06 13.78 -1.06 13.78 -1.38 17.75 C-2 23 -2 23 -4 27 C-4.66 27 -5.32 27 -6 27 C-6 27.66 -6 28.32 -6 29 C-4.68 29.66 -3.36 30.32 -2 31 C-1.84 31.66 -1.84 31.66 -1 35 C-27.03 32.39 -48.77 24.71 -70 9 C-66 8 -66 8 -65 9 C-62.99 9.21 -60.96 9.31 -58.94 9.38 C-58.39 9.4 -58.39 9.4 -55.59 9.52 C-50.83 8.83 -48 6.65 -44 4 C-41.03 2.55 -38.03 1.15 -35 -0.19 C-33.49 -0.86 -31.99 -1.54 -30.44 -2.23 C-18.99 -6.8 -9.49 -8.94 0 0 Z M-16 13 C-16 14.32 -16 15.64 -16 17 C-14.68 17 -13.36 17 -12 17 C-12 15.68 -12 14.36 -12 13 C-13.32 13 -14.64 13 -16 13 Z M-29.5 14.88 C-30.28 15.05 -30.28 15.05 -34.22 15.93 C-38 17 -38 17 -39 19 C-37.13 19.96 -35.25 20.92 -33.38 21.88 C-32.33 22.41 -31.29 22.94 -30.21 23.49 C-25.64 25.64 -22.08 27 -17 27 C-17.66 24.69 -18.32 22.38 -19 20 C-20.65 20.33 -22.3 20.66 -24 21 C-28 18 -28 18 -28 17 C-24.56 16.38 -24.56 16.38 -21 16 C-20.67 16.66 -20.34 17.32 -20 18 C-20 16.35 -20 14.7 -20 13 C-23.05 13 -26.57 14.21 -29.5 14.88 Z " fill="#201512" transform="translate(692,504)"/>
<path d="M0 0 C3.72 0.24 7.44 0.43 11.16 0.62 C14 1 14 1 15 3 C14.34 3 13.68 3 13 3 C12.67 3.66 12.34 4.32 12 5 C11.11 5.04 11.11 5.04 6.62 5.25 C-7.3 6.21 -16.24 15.4 -23 27 C-29.4 42.3 -31.5 58.04 -32.94 74.44 C-35.09 96.58 -44.52 105.61 -63.91 114.87 C-73.49 119.17 -73.49 119.17 -77 118 C-76.39 117.66 -76.39 117.66 -73.31 115.91 C-50.11 102.35 -44.36 83.83 -42.12 57.81 C-39.89 33.38 -32.31 17.94 -13 3 C-7.82 -2.18 -6.98 -1.11 0 0 Z " fill="#6E4927" transform="translate(452,489)"/>
<path d="M0 0 C0.66 0 1.32 0 2 0 C3.97 3.43 5.82 6.86 7.62 10.38 C8.14 11.36 8.66 12.34 9.19 13.36 C13 20.72 13 20.72 13 23 C9 21 9 21 6 19 C5.88 19.91 5.88 19.91 5.26 24.53 C3.85 33.74 1.22 42.58 -1.34 51.53 C-1.7 52.81 -2.05 54.09 -2.42 55.41 C-2.58 55.98 -2.58 55.98 -3.41 58.88 C-4.71 65.73 -1.44 69.35 2.48 74.58 C9.2 83.72 15.5 93.22 21.12 103.06 C24 108 24 108 26 109 C26.33 107.35 26.66 105.7 27 104 C27.66 103.34 28.32 102.68 29 102 C29.21 107.88 28.51 112.82 27 118.5 C26.63 119.91 26.26 121.33 25.88 122.78 C25.59 123.84 25.3 124.91 25 126 C22.2 122.66 19.93 119.34 17.88 115.5 C17.63 115.04 17.63 115.04 16.37 112.72 C15.11 110.21 14.04 107.61 13 105 C12.5 104.84 12.5 104.84 10 104 C8.61 101.7 7.28 99.36 6 97 C5.01 95.68 4.02 94.36 3 93 C3 92.34 3 91.68 3 91 C2.34 91 1.68 91 1 91 C-0.38 88.96 -1.75 86.92 -3.07 84.85 C-6.11 80.35 -9.54 76.16 -12.93 71.92 C-18.05 64.7 -14.16 58.25 -11.44 50.62 C-10.29 46.93 -9.57 43.67 -9 39.88 C-8.16 34.93 -6.98 31.5 -5 27 C-5 25.02 -5 23.04 -5 21 C-4.77 20.5 -4.77 20.5 -3.62 18 C-1.26 12.18 -0.73 6.21 0 0 Z " fill="#BC8E3F" transform="translate(717,322)"/>
<path d="M0 0 C0.33 0.5 0.33 0.5 2 3 C2.33 2.34 2.66 1.68 3 1 C3.66 1 4.32 1 5 1 C4.53 5.98 3.28 9.19 0 13 C-5.49 14.81 -8.54 13.19 -13.5 10.56 C-14.91 9.83 -16.32 9.09 -17.77 8.33 C-21.63 6.21 -25.44 4.03 -29.25 1.81 C-49.86 -10.18 -63.68 -8.79 -85.22 -1 C-89.12 0.4 -93.06 1.7 -97 3 C-70.98 -24.93 -28.28 -25.9 0 0 Z " fill="#0F0604" transform="translate(716,488)"/>
<path d="M0 0 C2.62 3.94 3.11 7.55 4.06 12.19 C4.23 13.01 4.23 13.01 5.1 17.17 C6.42 24.23 7.13 31.01 7.13 38.2 C7.13 38.97 7.13 38.97 7.14 42.87 C7.13 44.46 7.13 46.05 7.12 47.69 C7.13 48.47 7.13 48.47 7.14 52.45 C7.12 67.05 6.77 81.82 3 96 C2.34 96 1.68 96 1 96 C3.82 100.66 6.82 103.56 11 107 C18.15 114.38 18.15 114.38 17 119 C12 121 12 121 9.54 119.44 C8.72 118.63 7.9 117.83 7.06 117 C6.2 116.16 5.34 115.33 4.45 114.46 C4.05 114.06 4.05 114.06 2 112 C0.8 110.87 -0.39 109.73 -1.62 108.56 C-4 106 -4 106 -4 104 C-4.99 103.67 -5.98 103.34 -7 103 C-10 100 -10 100 -9.44 96.31 C-9.2 95.44 -9.2 95.44 -8 91 C-7.33 88.36 -6.66 85.71 -6 83.06 C-5.65 81.68 -5.31 80.3 -4.95 78.87 C0.09 58.31 -0.02 37.87 -3 17 C-4.21 8.32 -4.21 8.32 -2 5 C-1.34 3.35 -0.68 1.7 0 0 Z " fill="#795026" transform="translate(502,545)"/>
<path d="M0 0 C0.33 0.16 0.33 0.16 2 1 C-11.4 18.87 -26.44 27.63 -49 29 C-40.26 29.1 -31.68 29.09 -23 28 C-25.79 33.57 -36.42 34.79 -42 35.24 C-52.72 35.63 -63.33 35.13 -74 34 C-87.7 33.31 -100.03 35.31 -112.92 39.98 C-116 41 -116 41 -119 41 C-104.66 28.85 -88.96 25.24 -70.62 23.44 C-68.25 23.19 -65.87 22.93 -63.49 22.68 C-62.37 22.56 -61.24 22.44 -60.08 22.32 C-38.99 20.11 -18.85 15.75 -2 2 C-1.34 2 -0.68 2 0 2 C0 1.34 0 0.68 0 0 Z " fill="#61412C" transform="translate(380,640)"/>
<path d="M0 0 C0.66 0 1.32 0 2 0 C2.33 1 2.33 1 4 6 C4.66 6 5.32 6 6 6 C11 14.33 11 14.33 11 17 C11.66 17 12.32 17 13 17 C14 20 15 23 16 26 C16.66 26 17.32 26 18 26 C21.74 37.22 19.72 54.84 16 66 C13 66 13 66 11.17 63.22 C10.51 61.99 9.86 60.76 9.19 59.5 C5.44 52.68 1.53 46.53 -4 41 C-8.42 35.83 -8.21 33.16 -6.5 26.69 C-6.1 25.12 -5.7 23.54 -5.29 21.93 C-4.86 20.3 -4.44 18.67 -4 17 C-3.29 13.79 -2.58 10.58 -1.88 7.38 C-1.33 4.9 -0.73 2.43 0 0 Z " fill="#B10F0E" transform="translate(726,351)"/>
<path d="M0 0 C5.22 6.19 5.91 11.02 5 19 C1.5 26.54 -2.67 30.53 -11.06 31.44 C-18.4 30.62 -21.59 27.76 -26 22 C-26.66 21.34 -27.32 20.68 -28 20 C-28.04 17.67 -28.04 15.33 -28 13 C-28.33 11.35 -28.66 9.7 -29 8 C-22.92 -4.16 -11.38 -7.34 0 0 Z " fill="#C19443" transform="translate(470,432)"/>
<path d="M0 0 C1 2 1 2 0.38 5.44 C0 9 0 9 3 12 C7.74 12.69 10.36 11.85 14.84 10.03 C21.72 7.46 28.34 7.26 35.62 7.12 C36.9 7.08 38.18 7.03 39.5 6.98 C42.66 6.9 45.83 6.94 49 7 C50 9 50 9 48.56 11.81 C44.81 16.48 40.37 18.99 34.88 21.33 C26.32 25.06 26.32 25.06 24.31 30.88 C24.21 32.24 24.11 33.6 24 35 C23.67 35 23.34 35 23 35 C23 38.63 23 42.26 23 46 C18 41 17.75 38.82 18 32 C18.33 31.34 18.66 30.68 19 30 C18.15 29.88 17.29 29.76 16.41 29.64 C8.27 28.12 -0.81 25.63 -5 18 C-6.81 11.38 -5.49 7.79 -2 2 C-1.34 1.34 -0.68 0.68 0 0 Z " fill="#9B6748" transform="translate(713,587)"/>
<path d="M0 0 C2.81 2.56 2.81 2.56 5 5 C-0.38 10.88 -0.38 10.88 -6 12 C-6.66 13.32 -7.32 14.64 -8 16 C-10.33 17.34 -12.66 18.67 -15 20 C-17.63 22.05 -20.17 24.18 -22.72 26.32 C-26.51 29.42 -30.4 32.36 -34.31 35.31 C-41.14 40.5 -47.7 45.9 -54.14 51.54 C-60.58 57.08 -60.58 57.08 -66 56 C-67 55 -67 55 -67 49 C-64.83 46.36 -64.83 46.36 -61.81 43.75 C-60.71 42.79 -59.6 41.83 -58.46 40.85 C-53.08 36.42 -47.56 32.2 -42 28 C-31.6 19.99 -21.31 11.87 -11.16 3.55 C-5.42 -1.08 -5.42 -1.08 0 0 Z " fill="#B6893C" transform="translate(434,480)"/>
<path d="M0 0 C0.33 0 0.66 0 1 0 C1.16 1.26 1.32 2.52 1.48 3.81 C6.37 39.68 23.05 63.56 55 81 C56.75 81.64 58.51 82.28 60.31 82.94 C66.76 88.29 65.65 96.03 66 104 C68.73 148.33 74.75 193.59 85.15 236.8 C85.93 240.67 86.17 244.06 86 248 C85.01 247.67 84.02 247.34 83 247 C83 244.67 83 242.33 83 240 C82.55 238.68 82.09 237.36 81.62 236 C79.87 230.59 79.21 225.52 78.53 219.9 C77.86 214.99 76.8 210.22 75.72 205.39 C74.81 201.09 74.16 196.78 73.53 192.44 C72.95 188.67 72.26 184.93 71.56 181.19 C69.96 172.24 68.88 163.24 67.84 154.21 C67.27 149.53 66.41 144.94 65.47 140.31 C63.86 131.92 63.31 123.64 62.94 115.12 C61.81 90.57 61.81 90.57 57.19 86.56 C56.14 86.05 55.08 85.53 54 85 C52.35 84.01 50.7 83.02 49 82 C48.34 82 47.68 82 47 82 C47 81.34 47 80.68 47 80 C46.34 80 45.68 80 45 80 C45 79.34 45 78.68 45 78 C43.68 77.67 42.36 77.34 41 77 C39.35 76.01 37.7 75.02 36 74 C34.68 73.34 33.36 72.68 32 72 C31.67 71.01 31.34 70.02 31 69 C29.35 68.34 27.7 67.68 26 67 C26 66.01 26 65.02 26 64 C24.35 63.34 22.7 62.68 21 62 C20.67 61.01 20.34 60.02 20 59 C19.2 58.2 18.39 57.39 17.56 56.56 C15 54 15 54 13 50 C12.34 50 11.68 50 11 50 C9.94 47.7 8.94 45.36 8 43 C7.34 41.68 6.68 40.36 6 39 C5.84 38.5 5.84 38.5 5 36 C4.34 34.68 3.68 33.36 3 32 C3 30.02 3 28.04 3 26 C2.34 26 1.68 26 1 26 C-0.16 20.52 -0.1 15.21 -0.06 9.62 C-0.05 7.82 -0.04 6.02 -0.04 4.16 C-0.02 2.79 -0.01 1.42 0 0 Z " fill="#E2C691" transform="translate(555,492)"/>
<path d="M0 0 C2.99 3.93 3.84 5.47 4.19 10.19 C4.85 10.52 5.51 10.85 6.19 11.19 C7.24 19.19 4.72 25.67 0.19 32.19 C-0.8 32.19 -1.79 32.19 -2.81 32.19 C-3.47 33.51 -4.13 34.83 -4.81 36.19 C-12.39 40.43 -19.75 40 -27.81 37.19 C-36 31.59 -39.51 24.03 -39.81 14.19 C-38.37 4.47 -35.2 -0.66 -26.81 -5.81 C-15.64 -8.05 -8.14 -8.14 0 0 Z M-32.81 7.19 C-34.95 12.54 -34.7 14.66 -33.81 20.19 C-33.81 21.18 -33.81 22.17 -33.81 23.19 C-27.47 30.26 -22.55 34.03 -12.81 33.19 C-4.43 29.12 -1.21 25.02 -0.25 15.75 C-1.04 7.97 -3.08 3.95 -9.69 -0.31 C-18.91 -3.66 -27.38 -1.38 -32.81 7.19 Z " fill="#110602" transform="translate(475.8125,429.8125)"/>
<path d="M0 0 C3.89 23.16 2.89 55.11 -15 73 C-18.33 73.41 -21.66 73.74 -25 74 C-22.38 67.46 -19.26 61.2 -16.19 54.86 C-12.23 46.08 -9.86 38.15 -9.93 28.54 C-9.92 27.32 -9.91 26.11 -9.9 24.86 C-9.88 22.33 -9.89 19.8 -9.92 17.28 C-9.82 10.69 -9.03 0 0 0 Z " fill="#B68A44" transform="translate(386,537)"/>
<path d="M0 0 C5 2 5 2 6 4 C6.87 4.26 7.74 4.52 8.64 4.79 C12.82 6.29 15.41 8.52 18.81 11.38 C28.88 19.62 39.37 27.24 50.5 34 C55 37 55 37 56 41 C56.99 41.33 57.98 41.66 59 42 C58.01 42.66 57.02 43.32 56 44 C60.78 45.19 64.22 45.19 69 44 C69.66 44.33 70.32 44.66 71 45 C71 45.66 71 46.32 71 47 C69.35 47.33 67.7 47.66 66 48 C66.16 48.66 66.16 48.66 67 52 C53.62 48.2 40.93 39.4 30 31 C27.67 29.35 25.34 27.7 23 26.06 C13.88 19.56 5.38 12.43 -3 5 C-2.01 4.67 -1.02 4.34 0 4 C0 2.68 0 1.36 0 0 Z " fill="#7C5224" transform="translate(520,664)"/>
<path d="M0 0 C1.34 1.03 2.68 2.06 4.06 3.12 C11.3 10.24 23.69 23.24 21 34 C20.78 33.53 20.78 33.53 19.64 31.18 C14.83 21.65 9.27 13.8 2 6 C1.18 5.12 0.36 4.24 -0.49 3.33 C-3.04 0.96 -5.41 -0.54 -8.5 -2.12 C-12.09 -3.99 -15.52 -5.91 -19 -8 C-19 -8.66 -19 -9.32 -19 -10 C-21.64 -10.77 -24.31 -11.41 -27 -12 C-36 -14 -36 -14 -40.19 -15.15 C-43.8 -15.95 -46.36 -16.08 -50 -15.62 C-50.83 -15.52 -50.83 -15.52 -55 -15 C-55 -15.66 -55 -16.32 -55 -17 C-91.31 -12.01 -91.31 -12.01 -103 -5 C-104.89 -4.11 -106.79 -3.24 -108.71 -2.41 C-109.79 -1.93 -110.87 -1.46 -111.98 -0.97 C-113.1 -0.49 -114.22 -0 -115.38 0.5 C-116.49 0.99 -117.6 1.47 -118.74 1.97 C-123.11 3.88 -127.48 5.78 -131.86 7.64 C-140.73 11.49 -149.28 16.04 -157.75 20.67 C-158.93 21.31 -160.1 21.95 -161.31 22.61 C-163.67 23.91 -166.03 25.21 -168.39 26.51 C-176.78 31.11 -176.78 31.11 -179 30 C-162.28 19.56 -144.58 10.87 -127 2 C-126 1.49 -124.99 0.98 -123.96 0.45 C-84.42 -19.54 -37.43 -30.61 0 0 Z " fill="#DDC192" transform="translate(717,442)"/>
<path d="M0 0 C1.13 0.29 2.27 0.58 3.44 0.88 C6 2 6 2 8 6 C8.2 9.72 8.18 12.46 7 16 C-1.24 20.12 -12.19 16.38 -20 13 C-19.34 12.34 -18.68 11.68 -18 11 C-18 10.01 -18 9.02 -18 8 C-19.98 8 -21.96 8 -24 8 C-24 8.66 -24 9.32 -24 10 C-29.79 10 -33.39 7.25 -38 4 C-38 3.67 -38 3.34 -38 3 C-37.37 2.9 -37.37 2.9 -34.2 2.41 C-32.52 2.15 -30.85 1.89 -29.12 1.62 C-28.26 1.49 -28.26 1.49 -23.86 0.81 C-20.34 0.22 -16.85 -0.5 -13.38 -1.31 C-8.31 -2.11 -4.89 -1.44 0 0 Z " fill="#CA7D5D" transform="translate(729,657)"/>
<path d="M0 0 C0.52 0 0.52 0 3.16 0 C19.85 0.04 36 1 52.38 4.38 C53.48 4.59 54.59 4.81 55.72 5.04 C70.38 8 84.42 11.94 98.38 17.38 C99.71 17.81 101.05 18.25 102.43 18.71 C103.4 19.26 104.37 19.81 105.38 20.38 C105.38 27.49 105.38 27.49 101.38 31.38 C100.72 31.54 100.72 31.54 97.38 32.38 C97.71 31.72 98.03 31.06 98.38 30.38 C99.03 30.38 99.69 30.38 100.38 30.38 C101.19 26.56 101.19 26.56 101.38 22.38 C96.38 19.38 96.38 19.38 91.38 18.38 C89.87 17.76 88.36 17.14 86.8 16.5 C81.13 14.28 75.48 12.74 69.56 11.38 C68.47 11.12 67.38 10.87 66.26 10.6 C29.56 2.14 -8.59 -1.45 -45.62 7.38 C-47.56 7.71 -49.5 8.03 -51.5 8.38 C-56.44 9.34 -60.87 10.75 -65.62 12.38 C-68.04 12.99 -70.46 13.59 -72.88 14.19 C-79.1 15.82 -84.64 18.04 -90.42 20.86 C-97.59 24.25 -105.09 26.9 -112.62 29.38 C-95.28 12.03 -59.84 6.21 -36.62 2.38 C-35.62 2.19 -34.61 2.01 -33.58 1.82 C-22.44 -0.05 -11.27 -0.02 0 0 Z " fill="#DBC192" transform="translate(561.625,198.625)"/>
<path d="M0 0 C0 0.66 0 1.32 0 2 C-2.32 3.03 -4.65 4.03 -7 5 C-7.66 5.66 -8.32 6.32 -9 7 C-9.66 6.67 -10.32 6.34 -11 6 C-11 6.66 -11 7.32 -11 8 C-8.69 7.97 -6.37 7.9 -4.06 7.81 C-3.42 7.8 -3.42 7.8 -0.16 7.71 C0.88 7.47 1.93 7.24 3 7 C3.33 5.35 3.66 3.7 4 2 C9.56 1.19 9.56 1.19 15 1 C0.64 13.71 -21.57 20.2 -40.44 20.06 C-42.04 20.05 -43.65 20.04 -45.31 20.04 C-45.92 20.03 -45.92 20.03 -49 20 C-45.21 12.42 -42.94 11.42 -34.75 10.06 C-24.45 8.18 -14.81 5.53 -5.21 1.35 C-2 0 -2 0 0 0 Z " fill="#835D36" transform="translate(396,607)"/>
<path d="M0 0 C0.66 0 1.32 0 2 0 C3.97 3.43 5.82 6.86 7.62 10.38 C8.14 11.36 8.66 12.34 9.19 13.36 C13 20.72 13 20.72 13 23 C9 21 9 21 6 19 C5.88 19.91 5.88 19.91 5.26 24.53 C3.85 33.74 1.22 42.58 -1.34 51.53 C-1.7 52.81 -2.05 54.09 -2.42 55.41 C-2.58 55.98 -2.58 55.98 -3.41 58.88 C-4.71 65.73 -1.44 69.35 2.48 74.58 C9.2 83.72 15.5 93.22 21.12 103.06 C24 108 24 108 26 109 C26.33 107.35 26.66 105.7 27 104 C27.66 103.34 28.32 102.68 29 102 C29.41 109.19 27.88 115.12 26 122 C25.67 121.84 25.67 121.84 24 121 C24.11 120.28 24.11 120.28 24.69 116.62 C24.79 115.1 24.89 113.57 25 112 C23.35 111.01 21.7 110.02 20 109 C17.92 105.69 16.03 102.44 14.19 99 C9.28 90.1 3.9 82.02 -2.34 74 C-7.13 67.45 -9.28 64.06 -6 56 C-5.34 54.68 -4.68 53.36 -4 52 C-3.67 50.19 -3.34 48.37 -3 46.5 C-2 41 -2 41 0 37 C0.55 34.55 1.05 32.09 1.5 29.62 C2.18 25.93 2.84 22.44 4.09 18.9 C5 16 5 16 5 10 C3.35 9.67 1.7 9.34 0 9 C-0.31 4.44 -0.31 4.44 0 0 Z " fill="#DFC698" transform="translate(717,322)"/>
<path d="M0 0 C21.59 10.79 26.17 45.54 28 67 C28.3 73.19 28.41 79.37 28.44 85.56 C28.45 87.05 28.46 88.53 28.47 90.06 C28.39 99.92 27.45 109.42 25 119 C24.67 119 24.34 119 24 119 C24.08 118.11 24.08 118.11 24.48 113.58 C28.74 57.61 28.74 57.61 19 43 C18.34 44.98 17.68 46.96 17 49 C16.34 48.67 15.68 48.34 15 48 C14.89 44.49 15.07 41.02 15.22 37.52 C15 34 15 34 12 29 C11.13 25.36 10.81 23.58 12 20 C9.76 12.03 6.24 6.51 0 1 C0 0.67 0 0.34 0 0 Z " fill="#B58E53" transform="translate(483,505)"/>
<path d="M0 0 C3.93 2.45 5.75 4.26 7.81 8.38 C6.29 11.43 3.86 12.03 0.81 13.38 C-2.19 13.38 -2.19 13.38 -4.12 10.44 C-6.19 7.38 -6.19 7.38 -10.19 6.38 C-14.76 16.52 -15.65 25 -11.19 35.38 C-7.75 39.69 -4.09 43.48 -0.19 47.38 C-9.53 43.64 -17.36 34.44 -19.91 24.57 C-21.09 10.86 -16.45 -6.38 0 0 Z " fill="#B27856" transform="translate(476.1875,534.625)"/>
<path d="M0 0 C1.59 4.78 -1.26 7.07 -4 11 C-7.72 13.48 -8.79 12.97 -13.12 12.38 C-20.63 11.68 -26.87 13.09 -34.09 15.09 C-37.88 15.97 -41.12 16.17 -45 16 C-42 14 -42 14 -37 13 C-37 12.34 -37 11.68 -37 11 C-13.88 -3.55 -13.88 -3.55 0 0 Z " fill="#9D3D2C" transform="translate(742,639)"/>
<path d="M0 0 C0.72 3.84 1.26 7.56 1.69 11.44 C1.82 12.51 1.95 13.59 2.08 14.7 C3 22.45 3 22.45 3 25 C-12.89 21.82 -12.89 21.82 -16 16 C-16.94 12.88 -16.94 12.88 -17 10 C-16.01 9.01 -15.02 8.02 -14 7 C-13.05 5.8 -12.1 4.61 -11.12 3.38 C-7.5 -0.54 -5.23 -1.74 0 0 Z " fill="#BB8059" transform="translate(488,552)"/>
<path d="M0 0 C-2.04 1.6 -4.08 3.21 -6.12 4.81 C-7.41 5.82 -8.69 6.83 -10 7.86 C-12.53 9.84 -15.06 11.82 -17.59 13.79 C-24.62 19.27 -31.49 24.89 -38.26 30.69 C-44.64 36.07 -44.64 36.07 -50 35 C-50 31 -50 31 -47 26 C-42 24 -42 24 -38.38 24.12 C-35 24 -35 24 -32 20 C-31.34 20.33 -30.68 20.66 -30 21 C-29.77 19.76 -29.55 18.52 -29.31 17.25 C-25.74 9.15 -19.31 1.57 -10.55 -1.02 C-3.34 -1.67 -3.34 -1.67 0 0 Z " fill="#7F572D" transform="translate(418,501)"/>
<path d="M0 0 C3.57 2.99 6.99 5.99 10.25 9.31 C13.98 12.98 17.83 16.25 21.91 19.52 C23.99 21.19 26.05 22.89 28.09 24.61 C42.7 36.74 58.86 47.04 75 57 C74.34 57.99 73.68 58.98 73 60 C58.08 57.14 41.97 40.81 30.71 31.19 C27.84 28.87 25.49 28.08 22 27 C21.01 26.01 20.02 25.02 19 24 C18.34 23.67 17.68 23.34 17 23 C17 24.32 17 25.64 17 27 C15.35 26.67 13.7 26.34 12 26 C13 23 13 23 16 22 C14.54 16.15 10.98 12.32 6 9 C6 8.34 6 7.68 6 7 C4.68 6.34 3.36 5.68 2 5 C1.34 3.35 0.68 1.7 0 0 Z " fill="#BC9863" transform="translate(503,641)"/>
<path d="M0 0 C-2 4 -2 4 -5 7 C-5.66 7 -6.32 7 -7 7 C-7 7.66 -7 8.32 -7 9 C-5.85 8.83 -5.85 8.83 0 8 C0 8.66 0 9.32 0 10 C-1.63 10.25 -3.26 10.5 -4.94 10.75 C-13.28 12.12 -18.64 15.73 -23 23 C-23.65 30.85 -22.65 36.04 -19 43 C-19.83 43.17 -19.83 43.17 -24 44 C-26.62 40.25 -28.54 36.29 -30.62 32.22 C-33 29 -33 29 -35.99 28.87 C-40.24 30.47 -44.04 32.79 -48 35 C-48.66 34.67 -49.32 34.34 -50 34 C-48.93 33.3 -47.86 32.6 -46.75 31.88 C-45.37 30.97 -43.99 30.06 -42.56 29.12 C-41.87 28.67 -41.87 28.67 -38.38 26.38 C-35 24 -35 24 -34 22 C-32.35 21.34 -30.7 20.68 -29 20 C-21.09 14.79 -13.4 9.24 -6.06 3.25 C-2 0 -2 0 0 0 Z " fill="#B6945A" transform="translate(661,354)"/>
<path d="M0 0 C3.53 1.76 3.86 5.42 5 9 C5 15.62 3.97 17.04 0 22 C-1 19 -1 19 2 15 C2 9 2 9 1 6 C0.34 6 -0.32 6 -1 6 C-1.33 6.99 -1.66 7.98 -2 9 C-2.66 9 -3.32 9 -4 9 C-4.08 9.95 -4.16 10.9 -4.25 11.88 C-5 15 -5 15 -9 17 C-9.33 18.32 -9.66 19.64 -10 21 C-11 24 -11 24 -15 28 C-15.66 28 -16.32 28 -17 28 C-17.66 29.32 -18.32 30.64 -19 32 C-21.31 34.35 -23.65 36.69 -26 39 C-26.99 40.32 -27.98 41.64 -29 43 C-29.33 43.17 -29.33 43.17 -31 44 C-31.66 45.65 -32.32 47.3 -33 49 C-33.66 49.17 -33.66 49.17 -37 50 C-39.95 52.61 -41.75 54.24 -43 58 C-43.99 58.33 -44.98 58.66 -46 59 C-46.97 60.15 -47.94 61.31 -48.94 62.5 C-52 66 -52 66 -56 67 C-56.66 68.32 -57.32 69.64 -58 71 C-61.68 74.68 -67.58 80 -73 80 C-73 80.66 -73 81.32 -73 82 C-73.83 82.16 -73.83 82.16 -78 83 C-74.35 79.19 -70.5 75.96 -66.31 72.75 C-61.18 68.76 -56.25 64.67 -51.48 60.27 C-49.41 58.38 -47.31 56.54 -45.2 54.71 C-33.6 44.47 -23.15 33.48 -14 21 C-13.09 19.77 -12.18 18.53 -11.25 17.26 C-7.17 11.65 -3.37 6.07 0 0 Z " fill="#DFC696" transform="translate(703,276)"/>
<path d="M0 0 C0.33 0 0.66 0 1 0 C1.01 0.84 1.02 1.69 1.03 2.55 C1.38 27.99 3.03 53 9.36 77.73 C10 81 10 81 9 85 C5.48 73.75 2.28 62.56 -0.12 51.02 C-0.85 47.67 -1.75 44.47 -2.75 41.19 C-6.09 27.9 -5.3 12.66 0 0 Z " fill="#D9C393" transform="translate(749,447)"/>
<path d="M0 0 C6.77 6.77 5.82 21.98 6.81 31.25 C8.3 44.83 10.17 58.31 12.43 71.78 C12.63 73.02 12.84 74.27 13.05 75.55 C13.23 76.63 13.41 77.71 13.6 78.82 C14.78 88.22 14.78 88.22 11 92 C9.84 84.57 8.7 77.14 7.57 69.71 C7.04 66.26 6.5 62.82 5.95 59.38 C2.9 39.67 1.38 19.88 0 0 Z " fill="#BF8F6E" transform="translate(631,598)"/>
<path d="M0 0 C9.88 1.98 14.89 11.29 18.28 20.24 C19.19 23.75 18.7 26.48 18 30 C20.06 35.06 20.06 35.06 22 37 C22.19 41.5 22.19 41.5 22 46 C21.67 46.16 21.67 46.16 20 47 C19.72 46.01 19.44 45.01 19.15 43.99 C10.57 14.9 10.57 14.9 -1.94 7.75 C-2.95 7.17 -3.96 6.6 -5 6 C-4 3 -4 3 -1 2 C-0.67 1.34 -0.34 0.68 0 0 Z " fill="#815930" transform="translate(477,502)"/>
<path d="M0 0 C0.99 0 1.98 0 3 0 C3 0.66 3 1.32 3 2 C3.99 2.33 4.98 2.66 6 3 C7.26 8.16 7.07 12.81 6 18 C3 19 3 19 0.19 18.5 C-3.18 17.97 -5.69 18.29 -9 19 C-9 17.68 -9 16.36 -9 15 C-9.66 14.34 -10.32 13.68 -11 13 C-10.34 12.67 -9.68 12.34 -9 12 C-9 9 -9 9 -11 7 C-10.01 7 -9.02 7 -8 7 C-8 5.68 -8 4.36 -8 3 C-2.77 0.61 -2.77 0.61 0 2 C0 1.34 0 0.68 0 0 Z " fill="#C5943B" transform="translate(409,366)"/>
<path d="M0 0 C-0.66 1.65 -1.32 3.3 -2 5 C-2.99 5 -3.98 5 -5 5 C-5 5.66 -5 6.32 -5 7 C-8.3 7 -11.6 7 -15 7 C-14.67 5.68 -14.34 4.36 -14 3 C-19.31 2.9 -23.91 3.3 -29 5 C-29.66 6.32 -30.32 7.64 -31 9 C-32.32 9.33 -33.64 9.66 -35 10 C-41.88 16.88 -44.73 25.02 -48 34 C-49.91 26.37 -44.57 18.05 -40 12 C-39.44 11.18 -38.89 10.35 -38.31 9.5 C-27.64 -2.04 -14.47 -3.62 0 0 Z " fill="#9F7845" transform="translate(478,500)"/>
<path d="M0 0 C-1.89 4.73 -4.04 8.3 -6.88 12.5 C-7.74 13.79 -8.6 15.08 -9.49 16.41 C-22.47 35 -22.47 35 -31 35 C-31 29.06 -30.54 29.07 -26.19 25.56 C-21.6 21.63 -17.91 17.56 -14.25 12.75 C-4.54 0 -4.54 0 0 0 Z " fill="#38251B" transform="translate(598,465)"/>
<path d="M0 0 C0.66 0.33 1.32 0.66 2 1 C-12.64 14.23 -12.64 14.23 -18.43 19 C-25.92 25.31 -25.92 25.31 -27 31 C-28 33 -28 33 -31 34 C-31.66 34.99 -32.32 35.98 -33 37 C-35.33 37.09 -37.67 37.08 -40 37 C-45 38 -45 38 -47 43 C-47.33 43.16 -47.33 43.16 -49 44 C-46.99 33.94 -35.55 27.74 -27.68 21.79 C-23.28 18.45 -18.92 15.07 -14.56 11.69 C-13.08 10.54 -11.6 9.39 -10.07 8.2 C-7.53 6.2 -5.02 4.15 -2.59 2.02 C-1.74 1.35 -0.88 0.69 0 0 Z " fill="#B08A52" transform="translate(416,489)"/>
<path d="M0 0 C2.5 0.17 5 0.32 7.5 0.44 C11.16 0.62 11.16 0.62 14 1 C14.17 1.33 14.17 1.33 15 3 C14.34 3 13.68 3 13 3 C12.67 3.66 12.34 4.32 12 5 C11.11 5.04 11.11 5.04 6.62 5.25 C0.5 5.62 -3.21 7.55 -8.38 10.7 C-12.27 12.63 -15.75 12.42 -20 12 C-17.55 2.19 -9.48 -2.25 0 0 Z " fill="#B0843B" transform="translate(452,489)"/>
<path d="M0 0 C2.01 0.3 4.01 0.63 6 1 C6.66 0.67 7.32 0.34 8 0 C15.8 4.2 15.8 4.2 17 9 C17.99 9.33 18.98 9.66 20 10 C19.01 10.66 18.02 11.32 17 12 C21.78 13.19 25.22 13.19 30 12 C30.66 12.33 31.32 12.66 32 13 C32 13.66 32 14.32 32 15 C30.35 15.33 28.7 15.66 27 16 C27.33 17.32 27.66 18.64 28 20 C22.2 18.36 17.07 15.56 11.81 12.69 C10.91 12.21 10.01 11.74 9.08 11.25 C4.07 8.53 2.01 7.02 -1 2 C-0.67 1.34 -0.34 0.68 0 0 Z " fill="#976B32" transform="translate(559,696)"/>
<path d="M0 0 C-0.39 0.2 -0.39 0.2 -2.34 1.24 C-3.34 1.78 -4.34 2.32 -5.38 2.88 C-5.87 3.14 -5.87 3.14 -8.4 4.49 C-11 6 -11 6 -13 8 C-8.38 8 -3.76 8 1 8 C1 8.66 1 9.32 1 10 C-0.22 10.09 -1.45 10.17 -2.71 10.26 C-16.98 11.45 -30.72 13.83 -44 19.38 C-48 21 -48 21 -51 20 C-4.85 -1.21 -4.85 -1.21 0 0 Z " fill="#C0A882" transform="translate(664,406)"/>
<path d="M0 0 C3.43 1.72 3.77 5.46 5 8.94 C7.79 16.79 7.79 16.79 10 19 C9.62 22.62 9.62 22.62 9 26 C5.49 26 4.66 22.77 3 20 C3 19.34 3 18.68 3 18 C1.35 18.66 -0.3 19.32 -2 20 C-3.67 20 -5.33 20 -7 20 C-6.41 15.11 -4.93 11.12 -2.94 6.62 C-2.39 5.38 -1.84 4.13 -1.28 2.85 C-0.86 1.91 -0.43 0.97 0 0 Z " fill="#C19D60" transform="translate(696,331)"/>
<path d="M0 0 C1.32 0.33 2.64 0.66 4 1 C3.34 4.96 2.68 8.92 2 13 C1.67 13 1.34 13 1 13 C1 11.35 1 9.7 1 8 C0.01 8.33 -0.98 8.66 -2 9 C-7.09 9.29 -11.16 8.58 -16 7 C-13.51 -5.44 -10.16 -4.21 0 0 Z " fill="#C4875F" transform="translate(722,679)"/>
<path d="M0 0 C7.41 7.71 11.15 15.06 11.06 25.69 C11.05 27.05 11.04 28.42 11.04 29.82 C11.02 30.87 11.01 31.92 11 33 C10.67 33 10.34 33 10 33 C9.75 31.06 9.5 29.12 9.25 27.12 C7.53 16.03 4.65 6.76 -6 2 C-9.14 -0.1 -11.32 -2.32 -14 -5 C-23.39 -6.02 -32.18 -5.36 -41 -2 C-29.71 -13.29 -11.25 -8.75 0 0 Z " fill="#E1C593" transform="translate(482,418)"/>
<path d="M0 0 C3.35 5.03 4 10.02 4 16 C0 19.31 0 19.31 -4 22 C-4.87 19.42 -5.72 16.84 -6.56 14.25 C-7.04 12.81 -7.51 11.37 -8 9.89 C-9 6 -9 6 -8 2 C-8 2.99 -8 3.98 -8 5 C-5.36 4.67 -2.72 4.34 0 4 C0 2.68 0 1.36 0 0 Z " fill="#6E4B2A" transform="translate(372,496)"/>
<path d="M0 0 C18.93 1.9 54.84 14.25 66 31 C63.31 34.75 63.31 34.75 60 38 C59.01 37.67 58.02 37.34 57 37 C57.99 36.67 58.98 36.34 60 36 C61.19 32.94 61.19 32.94 62 30 C61.01 29.67 60.02 29.34 59 29 C59 28.01 59 27.02 59 26 C57.01 25.3 55.01 24.65 53 24 C50.33 22.33 47.67 20.67 45 19 C32.11 12.22 19.11 5.97 4.81 2.88 C1 2 1 2 0 0 Z " fill="#D7BE8F" transform="translate(598,279)"/>
<path d="M0 0 C4.18 4.18 6.88 8.3 10 13.31 C11.03 14.96 12.06 16.6 13.12 18.3 C14.89 21.18 16.61 24.09 18.25 27.04 C20 30 20 30 22 31 C22.33 29.35 22.66 27.7 23 26 C23.66 25.34 24.32 24.68 25 24 C25.41 31.19 23.88 37.12 22 44 C21.34 43.67 20.68 43.34 20 43 C20.23 41.56 20.45 40.11 20.69 38.62 C20.79 37.1 20.89 35.57 21 34 C19.35 33.01 17.7 32.02 16 31 C13.87 27.65 11.94 24.36 10.06 20.88 C6.31 14.02 2.42 7.44 -2 1 C-1.34 0.67 -0.68 0.34 0 0 Z " fill="#D6BA8E" transform="translate(721,400)"/>
<path d="M0 0 C1.12 3 1.12 3 2 6 C0.78 6.39 -0.43 6.78 -1.69 7.19 C-8.52 10.06 -11.58 14.56 -15.31 20.81 C-16.01 21.97 -16.71 23.14 -17.43 24.33 C-17.95 25.21 -18.46 26.09 -19 27 C-20.82 23.36 -17.56 19.48 -16 16 C-15.25 12.44 -15.25 12.44 -15 10 C-15.66 10 -16.32 10 -17 10 C-16.67 8.35 -16.34 6.7 -16 5 C-15.01 5.33 -14.02 5.66 -13 6 C-10.37 4.79 -10.37 4.79 -7.44 3.06 C-2.18 0 -2.18 0 0 0 Z " fill="#9E783D" transform="translate(516,443)"/>
<path d="M0 0 C0.33 0 0.66 0 1 0 C1.16 0.97 1.31 1.94 1.47 2.94 C4.26 20.25 7.07 37.48 11.12 54.55 C11.91 58.52 12.18 61.97 12 66 C11.01 65.67 10.02 65.34 9 65 C9 62.67 9 60.33 9 58 C8.55 56.68 8.09 55.36 7.62 54 C5.87 48.59 5.2 43.52 4.53 37.89 C4.03 34.23 3.33 30.72 2.5 27.12 C-2.14 6.42 -2.14 6.42 0 0 Z " fill="#D2B789" transform="translate(629,674)"/>
<path d="M0 0 C3.54 1.19 6.84 1.78 10.54 2.19 C10.54 2.52 10.54 2.85 10.54 3.19 C4.86 3.58 0.39 2.97 -4.96 1.19 C-13.93 -1.73 -20.22 -1.92 -28.46 3.19 C-31.98 7.9 -31.8 8.72 -30.46 14.19 C-27.46 19.19 -27.46 19.19 -24.46 20.19 C-24.13 21.18 -23.8 22.17 -23.46 23.19 C-29.32 22.02 -30.29 21.11 -33.46 16.19 C-35 9.68 -34.94 6.26 -30.46 1.19 C-21.04 -7.11 -10.87 -4.09 0 0 Z " fill="#DBC394" transform="translate(675.45703125,372.80859375)"/>
<path d="M0 0 C-2 4 -2 4 -5 7 C-5.66 7 -6.32 7 -7 7 C-7 7.66 -7 8.32 -7 9 C-5.85 8.83 -5.85 8.83 0 8 C0 8.66 0 9.32 0 10 C-1.63 10.25 -3.26 10.5 -4.94 10.75 C-14.51 12.35 -20.56 16.83 -24 26 C-24.75 29.5 -24.75 29.5 -25 32 C-27.34 27.33 -26.88 26.59 -25 22 C-26.98 22.33 -28.96 22.66 -31 23 C-26.8 18.47 -22.09 15.06 -17.06 11.5 C-8.54 5.46 -8.54 5.46 -4.56 2.09 C-2 0 -2 0 0 0 Z " fill="#DEC79E" transform="translate(661,354)"/>
<path d="M0 0 C-0.5 4.47 -0.69 5.69 -4 9 C-7.57 9.29 -7.57 9.29 -11.69 9.19 C-12.37 9.17 -12.37 9.17 -15.82 9.11 C-16.87 9.07 -17.92 9.04 -19 9 C-14.28 -0.44 -9.86 -0.2 0 0 Z " fill="#B78F4F" transform="translate(366,618)"/>
<path d="M0 0 C0 0.33 0 0.66 0 1 C-0.85 1.03 -0.85 1.03 -5.12 1.19 C-13.74 1.81 -21.99 3.97 -30.35 6.04 C-35 7 -35 7 -38 6 C-35.34 4.87 -32.67 3.74 -30 2.62 C-28.51 2 -27.03 1.37 -25.5 0.73 C-16.4 -2.76 -8.72 -5.23 0 0 Z " fill="#A4826F" transform="translate(687,505)"/>
<path d="M0 0 C-0.33 0.99 -0.66 1.98 -1 3 C0.3 5.35 1.64 7.68 3 10 C3 10.99 3 11.98 3 13 C3.66 13 4.32 13 5 13 C5.33 14.65 5.66 16.3 6 18 C4.35 18.66 2.7 19.32 1 20 C-0.53 17.57 -2.05 15.13 -3.56 12.69 C-4.41 11.33 -5.26 9.97 -6.13 8.57 C-8 5 -8 5 -7 2 C-2 -1 -2 -1 0 0 Z " fill="#A7824A" transform="translate(596,399)"/>
<path d="M0 0 C7.46 6.8 11.93 15.51 16.48 24.38 C18 27 18 27 20 28 C20.2 30.94 20.2 30.94 20.12 34.56 C20.11 35.76 20.09 36.96 20.07 38.19 C20.05 39.12 20.02 40.05 20 41 C19.67 41 19.34 41 19 41 C18.82 40.33 18.82 40.33 17.94 36.94 C14.86 26.32 8.96 16.52 2 8 C2.66 8 3.32 8 4 8 C3.67 7.53 3.67 7.53 2 5.12 C0 2 0 2 0 0 Z " fill="#866E54" transform="translate(725,436)"/>
<path d="M0 0 C1.19 8.52 1.22 16.91 1.25 25.5 C1.27 27.05 1.29 28.59 1.31 30.19 C1.35 40.38 0.59 50.11 -2 60 C-2.33 60 -2.66 60 -3 60 C-2.84 58.23 -2.68 56.46 -2.51 54.64 C-1.85 46.03 -1.85 37.44 -1.88 28.81 C-1.87 27.24 -1.87 25.66 -1.86 24.04 C-1.87 11.25 -1.87 11.25 -2.63 4.95 C-2.75 3.65 -2.88 2.34 -3 1 C-1 0 -1 0 0 0 Z " fill="#9E7E5A" transform="translate(510,564)"/>
<path d="M0 0 C2 1 2 1 2 1 Z " fill="#EDEBDA" transform="translate(661,522)"/>
<path d="" fill="#BFBFBF" transform="translate(0,0)"/>
<path d="" fill="#BABABA" transform="translate(0,0)"/>
<path d="" fill="#B2B2B2" transform="translate(0,0)"/>
<path d="" fill="#BBBBBB" transform="translate(0,0)"/>
<path d="" fill="#BFBFBF" transform="translate(0,0)"/>
<path d="" fill="#BEBEBE" transform="translate(0,0)"/>
<path d="" fill="#BEBEBE" transform="translate(0,0)"/>
<path d="" fill="#BFBFBF" transform="translate(0,0)"/>
<path d="" fill="#BFBFBF" transform="translate(0,0)"/>
<path d="" fill="#BFBFBF" transform="translate(0,0)"/>
<path d="" fill="#BEBEBE" transform="translate(0,0)"/>
<path d="" fill="#BDBDBD" transform="translate(0,0)"/>
<path d="" fill="#BBBBBB" transform="translate(0,0)"/>
<path d="" fill="#DCD9CA" transform="translate(0,0)"/>
<path d="" fill="#BABAB8" transform="translate(0,0)"/>
<path d="" fill="#BFBFBD" transform="translate(0,0)"/>
<path d="" fill="#BEBCBD" transform="translate(0,0)"/>
<path d="" fill="#BEBEBE" transform="translate(0,0)"/>
<path d="" fill="#BFBFBF" transform="translate(0,0)"/>
</svg>
